<?xml version="1.0" encoding="UTF-8"?>
<svg version="1.1" xmlns="http://www.w3.org/2000/svg" width="512" height="512">
<path d="M0 0 C1.8733474 -0.00542577 3.74669053 -0.01255098 5.62002563 -0.02124023 C10.68802292 -0.03941859 15.75569317 -0.03242974 20.8236959 -0.01972389 C26.13400363 -0.00957227 31.44428402 -0.01899516 36.7545929 -0.02526855 C45.6676637 -0.03253675 54.58060172 -0.02297697 63.49365234 -0.00390625 C73.79518397 0.01788089 84.09639915 0.01079437 94.39792317 -0.01121187 C103.25080659 -0.02936553 112.10359479 -0.03192495 120.95649081 -0.0214572 C126.24056965 -0.01522468 131.52449971 -0.01438047 136.80856895 -0.02760315 C141.77373069 -0.03916118 146.73848419 -0.03113667 151.70360184 -0.00802612 C153.52488464 -0.00273966 155.34620184 -0.00425174 157.16747093 -0.01307678 C159.65485014 -0.02401806 162.14092348 -0.01028702 164.6282196 0.00964355 C165.7075521 -0.00374078 165.7075521 -0.00374078 166.8086893 -0.0173955 C171.83709997 0.06068904 174.6465637 1.40061121 178.5402832 4.51757812 C182.16861984 8.33687985 182.85028778 11.40036819 183.0402832 16.51757812 C182.85028778 21.63478806 182.16861984 24.6982764 178.5402832 28.51757812 C174.00498172 32.12711776 170.58128499 33.09427932 164.90933228 32.99859619 C163.78683266 33.00372274 163.78683266 33.00372274 162.64165628 33.00895286 C160.14474241 33.01551931 157.64891372 32.99357728 155.15209961 32.97167969 C153.35813421 32.97055094 151.56416696 32.97118561 149.77020264 32.97344971 C144.90691437 32.97459671 140.04402125 32.95108957 135.18082476 32.92315388 C130.09594256 32.89813797 125.01105118 32.89579807 119.92611694 32.89105225 C110.30016955 32.87862305 100.674404 32.84580211 91.04853666 32.80565429 C78.03893912 32.75257209 65.0292918 32.73099066 52.01961327 32.70764542 C31.52636705 32.67004074 11.03350458 32.59034948 -9.4597168 32.51757812 C-9.4597168 85.31757813 -9.4597168 138.11757813 -9.4597168 192.51757812 C117.2602832 192.51757812 243.9802832 192.51757812 374.5402832 192.51757812 C374.5402832 185.25757813 374.5402832 177.99757813 374.5402832 170.51757812 C379.712697 162.75895744 379.712697 162.75895744 384.5402832 160.51757812 C390.1400544 159.76376277 394.87528312 159.74454237 400.0402832 162.14257812 C403.73241356 165.65010196 406.24829004 168.74407651 407.08959961 173.85400391 C407.18943682 180.75023595 407.18943682 180.75023595 407.17163086 183.55566406 C407.16535769 185.61808926 407.21208798 187.67462177 407.26293945 189.73632812 C407.35883487 199.7483222 405.35069663 208.13043297 398.54467773 215.75244141 C389.43601731 224.60162373 379.38664401 225.10159843 367.27726746 225.03897095 C365.61987553 225.04501725 363.96248919 225.05279787 362.30511266 225.06215608 C357.76508471 225.08269199 353.22537306 225.07835881 348.6853193 225.06979489 C343.78332716 225.06485598 338.88141073 225.08289424 333.97944641 225.09786987 C324.38131741 225.12335617 314.78330034 225.12695221 305.1851432 225.12226935 C297.38224397 225.11870171 289.5793787 225.12220505 281.77648354 225.13071823 C280.6654724 225.13190861 279.55446127 225.13309899 278.40978313 225.13432544 C276.1526717 225.13674897 273.89556029 225.13917724 271.63844887 225.14161019 C250.4754215 225.16335847 229.31245788 225.15903759 208.14942691 225.1468405 C188.79724526 225.13650337 169.44526498 225.1590102 150.09312316 225.19703694 C130.21358307 225.23579997 110.33413823 225.25230459 90.4545601 225.24479043 C79.29721183 225.24096715 68.14003493 225.24593398 56.98271751 225.27421951 C47.4838623 225.2980572 37.98528394 225.30084596 28.48642489 225.27663918 C23.6422833 225.26486828 18.798648 225.26264311 13.95454025 225.28664398 C9.51478304 225.30838532 5.07595404 225.30212943 0.63624004 225.27412061 C-0.96463555 225.26883295 -2.56558416 225.27354056 -4.16638801 225.28959234 C-14.99190486 225.39055707 -24.26704894 224.05338166 -32.6915763 216.52245486 C-34.58302082 214.57834053 -36.02577886 212.82905621 -37.4597168 210.51757812 C-37.79043371 209.98917989 -38.12115063 209.46078165 -38.46188927 208.91637135 C-42.6141381 201.15295724 -42.03740848 192.89500044 -42.0090332 184.34643555 C-42.01773848 182.61089708 -42.02810845 180.8753663 -42.04000854 179.1398468 C-42.0666952 174.44542156 -42.06795631 169.75131929 -42.06288195 165.05683303 C-42.06073583 161.12818247 -42.07052647 157.19959636 -42.08009279 153.27095968 C-42.10225154 143.99658967 -42.10317621 134.72238169 -42.09106445 125.44799805 C-42.07899038 115.90308919 -42.10359948 106.35877038 -42.14620459 96.81396216 C-42.18151669 88.5987611 -42.19342666 80.38374716 -42.18692911 72.16847306 C-42.18331526 67.27086061 -42.18845567 62.37366896 -42.21635818 57.47612572 C-42.2416368 52.86700354 -42.23751444 48.25879606 -42.21153641 43.64968681 C-42.20683168 41.96636893 -42.21217763 40.28298545 -42.22878265 38.59974289 C-42.33040956 27.48937916 -41.21979555 17.95076198 -33.46457863 9.28929424 C-31.52091146 7.39444513 -29.77291833 5.95258521 -27.4597168 4.51757812 C-26.94626803 4.186493 -26.43281927 3.85540787 -25.90381145 3.51428986 C-17.86179275 -0.86862505 -8.88258141 -0.04319796 0 0 Z " fill="#D59E29" transform="translate(73.459716796875,159.482421875)"/>
<path d="M0 0 C5.4521357 2.53134872 6.4759981 4.71399714 10 10 C10 17.26 10 24.52 10 32 C31.12 32 52.24 32 74 32 C74 24.74 74 17.48 74 10 C79.17241379 2.24137931 79.17241379 2.24137931 84 0 C89.5997712 -0.75381535 94.33499991 -0.77303575 99.5 1.625 C103.06513686 5.01188002 105.69639119 7.58455122 106.3203125 12.54833984 C106.39313609 15.50022395 106.3490024 18.42396697 106.25 21.375 C106.23195313 22.39722656 106.21390625 23.41945313 106.1953125 24.47265625 C106.14839491 26.98274749 106.08276729 29.49087764 106 32 C106.5887793 31.97969727 107.17755859 31.95939453 107.78417969 31.93847656 C115.52539416 31.78333566 121.13992342 33.63131665 127.75 37.6875 C134.28416072 44.40316519 138.237375 51.7099418 138.26742554 61.19696045 C138.28022049 63.03035477 138.28022049 63.03035477 138.29327393 64.90078735 C138.29257501 66.2421266 138.291652 67.58346574 138.29052734 68.92480469 C138.29651664 70.34787344 138.30332312 71.77093896 138.31088257 73.19400024 C138.32851116 77.04958279 138.33323668 80.9050765 138.33451414 84.76069546 C138.33593834 87.17329004 138.34021306 89.58586223 138.34550858 91.99845123 C138.36400004 100.42606534 138.37218049 108.85361628 138.37060547 117.28125 C138.36940503 125.11906913 138.39049036 132.95661245 138.4220928 140.79436183 C138.44830694 147.53769618 138.45897058 154.28094074 138.45769465 161.02432561 C138.45718643 165.04547788 138.4627915 169.06638505 138.48405075 173.08748627 C138.50351957 176.87316814 138.50349931 180.65837331 138.48901749 184.44407272 C138.48595387 186.48177164 138.50254603 188.51947105 138.51989746 190.55709839 C138.45950764 199.43701183 136.96556198 206.16723233 132.3125 213.75 C125.59683481 220.28416072 118.2900582 224.237375 108.80303955 224.26742554 C106.96964523 224.28022049 106.96964523 224.28022049 105.09921265 224.29327393 C103.7578734 224.29257501 102.41653426 224.291652 101.07519531 224.29052734 C99.65212656 224.29651664 98.22906104 224.30332312 96.80599976 224.31088257 C92.95041721 224.32851116 89.0949235 224.33323668 85.23930454 224.33451414 C82.82670996 224.33593834 80.41413777 224.34021306 78.00154877 224.34550858 C69.57393466 224.36400004 61.14638372 224.37218049 52.71875 224.37060547 C44.88093087 224.36940503 37.04338755 224.39049036 29.20563817 224.4220928 C22.46230382 224.44830694 15.71905926 224.45897058 8.97567439 224.45769465 C4.95452212 224.45718643 0.93361495 224.4627915 -3.08748627 224.48405075 C-6.87316814 224.50351957 -10.65837331 224.50349931 -14.44407272 224.48901749 C-16.48177164 224.48595387 -18.51947105 224.50254603 -20.55709839 224.51989746 C-29.43701183 224.45950764 -36.16723233 222.96556198 -43.75 218.3125 C-50.28416072 211.59683481 -54.237375 204.2900582 -54.26742554 194.80303955 C-54.27595551 193.58077667 -54.28448547 192.35851379 -54.29327393 191.09921265 C-54.29257501 189.7578734 -54.291652 188.41653426 -54.29052734 187.07519531 C-54.29651664 185.65212656 -54.30332312 184.22906104 -54.31088257 182.80599976 C-54.32851116 178.95041721 -54.33323668 175.0949235 -54.33451414 171.23930454 C-54.33593834 168.82670996 -54.34021306 166.41413777 -54.34550858 164.00154877 C-54.36400004 155.57393466 -54.37218049 147.14638372 -54.37060547 138.71875 C-54.36940503 130.88093087 -54.39049036 123.04338755 -54.4220928 115.20563817 C-54.44830694 108.46230382 -54.45897058 101.71905926 -54.45769465 94.97567439 C-54.45718643 90.95452212 -54.4627915 86.93361495 -54.48405075 82.91251373 C-54.50351957 79.12683186 -54.50349931 75.34162669 -54.48901749 71.55592728 C-54.48595387 69.51822836 -54.50254603 67.48052895 -54.51989746 65.44290161 C-54.45950764 56.56298817 -52.96556198 49.83276767 -48.3125 42.25 C-42.07566184 36.18172504 -35.15760283 31.88081881 -26.3125 31.9609375 C-25.10013672 31.96939697 -25.10013672 31.96939697 -23.86328125 31.97802734 C-23.24839844 31.98527832 -22.63351562 31.9925293 -22 32 C-22.02094727 31.36497559 -22.04189453 30.72995117 -22.06347656 30.07568359 C-22.14704581 27.17561924 -22.19878774 24.27580884 -22.25 21.375 C-22.28351563 20.37597656 -22.31703125 19.37695312 -22.3515625 18.34765625 C-22.43315123 12.18770715 -22.1132688 8.68372214 -18 4 C-12.72867143 -1.00776214 -6.89190982 -0.92775709 0 0 Z M-22 64 C-22 69.28 -22 74.56 -22 80 C-20.10318985 80.00546844 -20.10318985 80.00546844 -18.1680603 80.01104736 C-6.24969754 80.04799203 5.66840671 80.10575923 17.58657265 80.18390274 C23.71381322 80.22340811 29.84090942 80.25558176 35.96826172 80.27099609 C41.88175624 80.28614225 47.79485391 80.3205522 53.70817184 80.36830902 C55.96395798 80.38314376 58.21980077 80.39104221 60.47563553 80.39188385 C63.63604267 80.39424887 66.79534896 80.4212925 69.95556641 80.45410156 C70.88777008 80.4490712 71.81997375 80.44404083 72.78042603 80.43885803 C78.34416218 80.52819208 81.60073382 81.26059406 86 85 C90.05630398 90.22259857 89.77397544 95.65340142 89 102 C86.82807539 106.58517417 84.57082516 108.88874255 80 111 C76.6907607 111.45015886 73.40497818 111.43748878 70.0690918 111.43237305 C69.07349747 111.4425647 68.07790314 111.45275635 67.05213928 111.46325684 C63.76777532 111.49340384 60.48370294 111.50265558 57.19921875 111.51171875 C54.91948984 111.52856413 52.63977023 111.54671418 50.36006165 111.56611633 C44.36452133 111.61363752 38.3690187 111.64343336 32.37335205 111.66955566 C25.17707496 111.70459028 17.98094263 111.76160913 10.78478241 111.81494904 C-0.14346015 111.89348774 -11.07151289 111.94407515 -22 112 C-22 138.4 -22 164.8 -22 192 C20.24 192 62.48 192 106 192 C106 149.76 106 107.52 106 64 C63.76 64 21.52 64 -22 64 Z " fill="#D59E29" transform="translate(342,80)"/>
</svg>
