<?xml version="1.0" encoding="UTF-8"?>
<svg version="1.1" xmlns="http://www.w3.org/2000/svg" width="512" height="512">
<path d="M0 0 C0.74390464 -0.00235223 1.48780928 -0.00470446 2.25425649 -0.00712797 C4.76087072 -0.01381441 7.26743308 -0.01335985 9.77405548 -0.01294994 C11.58386835 -0.0162488 13.39368049 -0.01997441 15.20349169 -0.02409142 C20.18798051 -0.03411724 25.17245729 -0.03782916 30.15695477 -0.04048073 C35.52867584 -0.0443821 40.90038737 -0.0539606 46.27210236 -0.0626936 C59.2509537 -0.08246347 72.22980583 -0.0925252 85.20866847 -0.10142139 C91.31978452 -0.10580371 97.43089971 -0.11117069 103.54201508 -0.11641026 C123.85570597 -0.13342358 144.16939633 -0.14791768 164.48309326 -0.155159 C169.75557709 -0.15706891 175.02806092 -0.15898924 180.30054474 -0.16094494 C181.61100551 -0.16142868 182.92146628 -0.16191242 184.27163798 -0.16241082 C205.49937676 -0.17071078 226.72705919 -0.19604669 247.95477337 -0.22852562 C269.74611821 -0.2615952 291.53743442 -0.2796077 313.32880449 -0.28280324 C325.56489843 -0.2849685 337.80091019 -0.2937195 350.03697968 -0.31926441 C360.45815706 -0.34097005 370.87923233 -0.34902248 381.30042976 -0.33929763 C386.61632351 -0.33475249 391.93200654 -0.33665182 397.2478714 -0.35605907 C402.11877305 -0.37368802 406.98931022 -0.37269503 411.86021572 -0.35716178 C413.61804136 -0.35478531 415.37589222 -0.35911126 417.13367933 -0.37099043 C432.20480014 -0.46649497 444.00886103 1.78299701 455.66968536 12.13422108 C467.70042636 24.14443179 469.31055756 36.8519142 469.33876801 53.07051563 C469.32649907 55.3951424 469.31307896 57.71976333 469.29859161 60.04437733 C469.29942172 62.46327795 469.30188642 64.8821785 469.30590057 67.30107594 C469.30874757 72.3518331 469.29416321 77.40214413 469.26660919 82.45282459 C469.23251094 88.90065085 469.23856178 95.34768107 469.25727177 101.79554558 C469.26787984 106.78438833 469.25886958 111.7730484 469.24388695 116.7618742 C469.23873389 119.1383297 469.23915166 121.5148045 469.2454319 123.89125729 C469.27412527 141.26786574 468.73181809 154.5482246 456.66968536 168.13422108 C447.591177 176.93006526 436.77743496 181.29794945 424.24197102 181.26564884 C423.49969009 181.26770148 422.75740915 181.26975411 421.99263486 181.27186894 C419.49758334 181.27753743 417.00258704 181.27608188 414.50753021 181.27466297 C412.70367866 181.27724669 410.89982767 181.28025987 409.09597749 181.28366637 C404.13268817 181.29173879 399.16941332 181.29352608 394.20611823 181.29426384 C388.855586 181.29611397 383.50506128 181.30366109 378.15453339 181.31039906 C366.45205293 181.32398452 354.74957589 181.3300074 343.04708886 181.33440971 C335.74104696 181.33717172 328.43500638 181.34140899 321.12896538 181.34591389 C300.90358596 181.35810673 280.67820761 181.36840608 260.45282459 181.37178898 C258.51089084 181.37211833 258.51089084 181.37211833 256.5297261 181.37245433 C255.23199397 181.37267261 253.93426185 181.37289089 252.59720451 181.37311578 C249.96747482 181.37355925 247.33774513 181.37400581 244.70801544 181.37445545 C242.75135745 181.3747876 242.75135745 181.3747876 240.75517102 181.37512645 C219.61668711 181.3790748 198.47823767 181.39652991 177.33976708 181.41981497 C155.64106101 181.44352439 133.94237223 181.45599064 112.243653 181.4571569 C100.05907419 181.45807388 87.87454028 181.46383201 75.68997383 181.48197651 C65.31488757 181.49737192 54.9398601 181.50250123 44.5647646 181.49423841 C39.27142518 181.49032997 33.97820417 181.49127105 28.6848793 181.50529575 C23.83699502 181.51802279 18.98931828 181.51684759 14.14143433 181.50470504 C12.38973311 181.50274598 10.63801725 181.50583612 8.8863366 181.5145494 C-6.19693095 181.58481367 -19.10459894 179.4289282 -30.63890839 168.91156483 C-44.30959511 154.54629356 -43.94612 139.04958609 -43.89672089 120.35687733 C-43.90196389 117.93894176 -43.90824284 115.52100824 -43.91550446 113.10307789 C-43.92587746 108.05061647 -43.92139151 102.99843725 -43.90673065 97.94598866 C-43.88954701 91.49927545 -43.91305072 85.05345393 -43.94822025 78.60684013 C-43.97027147 73.61796225 -43.96873402 68.62929519 -43.96045494 63.64038372 C-43.95963968 61.26473926 -43.96642088 58.88907865 -43.98122597 56.51348019 C-44.06909326 39.86503925 -43.6123771 25.75081442 -31.33031464 13.13422108 C-25.29248533 7.44199143 -19.26591876 3.59843499 -11.33031464 1.13422108 C-10.77557952 0.95772913 -10.22084441 0.78123719 -9.64929914 0.599397 C-6.43525306 -0.0453235 -3.26368162 -0.00699748 0 0 Z M-10.672966 37.77960682 C-12.88297883 42.2528603 -12.8924557 45.88376094 -12.84789276 50.8080492 C-12.85490204 51.76489109 -12.86191132 52.72173298 -12.869133 53.70757008 C-12.88669271 56.86050171 -12.87509708 60.01253081 -12.86156464 63.16547108 C-12.86426012 65.3621281 -12.86814301 67.55878395 -12.87316132 69.7554369 C-12.87905364 74.3552841 -12.87050169 78.95482024 -12.85179901 83.55463123 C-12.82900996 89.44611084 -12.84213441 95.33686153 -12.86608887 101.2283144 C-12.88055382 105.763122 -12.87593758 110.29775724 -12.8655777 114.83257008 C-12.86291236 117.00465958 -12.86617337 119.17676481 -12.87549591 121.34883595 C-12.88567266 124.38644234 -12.87014389 127.42287389 -12.84789276 130.46039295 C-12.85598969 131.35511814 -12.86408661 132.24984333 -12.87242889 133.1716814 C-12.79844442 138.63282521 -12.08835862 141.89053543 -8.33031464 146.13422108 C-2.82339218 151.00686324 2.26760541 150.69005312 9.40073395 150.61523914 C11.18476905 150.62036569 11.18476905 150.62036569 13.00484526 150.62559581 C16.29810205 150.63103914 19.59040484 150.61856355 22.88354611 150.59848356 C26.43766564 150.58119119 29.9917563 150.58705652 33.54590607 150.59009266 C39.70096931 150.5921889 45.85586279 150.57965118 52.01088333 150.5571413 C60.90995307 150.52461722 69.80894082 150.51421388 78.70806356 150.50918934 C93.14665198 150.50043732 107.58514995 150.47382429 122.02368927 150.43597889 C136.04842425 150.39925638 150.07313466 150.37094579 164.09790802 150.35394764 C164.9625604 150.35289675 165.82721277 150.35184585 166.71806674 150.35076311 C171.05582344 150.34554292 175.39358032 150.3404881 179.73133731 150.3355155 C215.710867 150.29405636 251.69022937 150.2203201 287.66968536 150.13422108 C287.66968536 110.86422108 287.66968536 71.59422108 287.66968536 31.13422108 C250.82752186 31.04605759 213.98545774 30.97219395 177.14321896 30.92995976 C172.79478179 30.92495686 168.44634485 30.91977958 164.09790802 30.91449451 C162.79935139 30.91292065 162.79935139 30.91292065 161.47456129 30.91131499 C147.452684 30.89390437 133.43087223 30.86236306 119.40903382 30.82560989 C105.02395108 30.78821876 90.63890268 30.7659891 76.25377333 30.7578671 C67.3756036 30.75237552 58.49761905 30.73502386 49.61950631 30.70255521 C43.53346831 30.68142987 37.4475262 30.67501653 31.36145417 30.68021557 C27.84877158 30.68278046 24.33641286 30.67881747 20.82378769 30.65739918 C17.01598286 30.63435047 13.208601 30.64226084 9.40073395 30.65320301 C8.28983599 30.64155164 7.17893803 30.62990028 6.0343765 30.61789584 C-1.77559628 30.67874923 -5.40483899 31.83069428 -10.672966 37.77960682 Z M318.66968536 31.13422108 C318.66968536 70.40422108 318.66968536 109.67422108 318.66968536 150.13422108 C345.46156036 150.25797108 345.46156036 150.25797108 372.79468536 150.38422108 C378.43062775 150.42063709 384.06657013 150.45705311 389.87329865 150.49457264 C394.9333371 150.50795188 394.9333371 150.50795188 399.99338531 150.51599598 C402.24398716 150.522131 404.494576 150.5361843 406.7450943 150.55652332 C410.15785246 150.58581941 413.5698085 150.58984461 416.98267365 150.58832264 C418.48201793 150.60991129 418.48201793 150.60991129 420.01165199 150.63193607 C425.72589336 150.59784203 429.26190141 150.14008498 433.66968536 146.13422108 C438.14353941 141.08625452 438.24069088 136.8688536 438.17139435 130.44452381 C438.17679733 129.48607563 438.18220032 128.52762745 438.18776703 127.54013538 C438.20024098 124.38237794 438.18377293 121.2255345 438.16577911 118.06781483 C438.16593412 115.86876344 438.16742336 113.66971177 438.1701889 111.47066212 C438.17157226 106.86661135 438.15902406 102.26287234 438.1362381 97.65887928 C438.10783725 91.75842534 438.11059631 85.85848868 438.12332821 79.95799637 C438.13028353 75.41895093 438.122498 70.88002501 438.11007118 66.34099483 C438.10555646 64.16529327 438.10522006 61.98957888 438.10913658 59.81387615 C438.11204772 56.77382445 438.09554651 53.73448544 438.0737381 50.69452381 C438.07823975 49.79620335 438.08274139 48.89788288 438.08737946 47.97234058 C438.03048616 43.19781559 437.76926628 40.00770641 434.66968536 36.13422108 C430.76458336 32.70535102 428.46345339 31.00802134 423.29111481 31.01396656 C422.37313803 31.01258906 421.45516125 31.01121157 420.50936699 31.00979233 C419.4954117 31.01339044 418.48145641 31.01698854 417.43677521 31.02069569 C416.3561059 31.02057515 415.27543659 31.02045462 414.16201973 31.02033043 C410.65153343 31.02107894 407.14109971 31.0287044 403.63062286 31.03656483 C401.46826961 31.03803444 399.305916 31.03905503 397.14356232 31.03961658 C389.11059792 31.04486726 381.07764113 31.05882837 373.04468536 31.07172108 C355.10093536 31.09234608 337.15718536 31.11297108 318.66968536 31.13422108 Z " fill="#D59F29" transform="translate(43.33031463623047,14.865778923034668)"/>
<path d="M0 0 C1.05987381 -0.00384115 2.11974762 -0.00768229 3.21173882 -0.01163983 C4.36999287 -0.01077335 5.52824692 -0.00990687 6.72159958 -0.00901413 C7.95683798 -0.01198525 9.19207637 -0.01495637 10.46474624 -0.01801753 C13.89076622 -0.02519116 17.31673606 -0.02787633 20.74275994 -0.028615 C24.43886262 -0.03046795 28.13495447 -0.03801648 31.83105087 -0.04475021 C39.91167839 -0.05832397 47.99230094 -0.06435668 56.07293797 -0.06876087 C61.11960136 -0.07152476 66.16626285 -0.07576237 71.21292496 -0.08026505 C85.18897125 -0.09245617 99.16501601 -0.10275598 113.1410675 -0.10614014 C114.03531405 -0.1063597 114.9295606 -0.10657927 115.85090552 -0.10680549 C116.74727513 -0.10702377 117.64364474 -0.10724204 118.56717706 -0.10746694 C120.38352346 -0.1079104 122.19986987 -0.10835696 124.01621628 -0.10880661 C124.91718425 -0.10902804 125.81815223 -0.10924947 126.74642226 -0.10947761 C141.34469737 -0.11342547 155.94292255 -0.13087984 170.54117838 -0.15416613 C185.53325663 -0.17788738 200.52530985 -0.19034233 215.51740718 -0.19150805 C223.93320863 -0.19242435 232.34894503 -0.19816524 240.76472855 -0.21632767 C247.93095551 -0.23173905 255.09709731 -0.23684298 262.2633377 -0.22858956 C265.91813252 -0.2246868 269.57275588 -0.22559426 273.22752953 -0.23964691 C277.19380691 -0.25475755 281.15984389 -0.24650826 285.12614059 -0.23606491 C286.27547176 -0.24412132 287.42480292 -0.25217772 288.6089623 -0.26047826 C295.36433384 -0.21888558 302.9417357 -0.13757324 308.29677606 4.547961 C312.5991682 9.48090271 312.82972954 13.74738365 312.83897018 19.99592972 C312.84393509 20.7962764 312.84889999 21.59662308 312.85401535 22.42122269 C312.86862801 25.07072686 312.87543771 27.72017115 312.88096237 30.36970901 C312.88671484 32.21192807 312.89247257 34.0541471 312.89823532 35.89636612 C312.90874295 39.76077427 312.91458708 43.62516163 312.91807175 47.48958206 C312.92355402 52.43601118 312.94757733 57.38216469 312.9760437 62.32850742 C312.99468847 66.13497082 312.99987668 69.9413681 313.00140762 73.74787331 C313.00443085 75.57109139 313.01244823 77.3943084 313.0255928 79.21748161 C313.04269079 81.77144697 313.04076394 84.32474249 313.03428268 86.87874222 C313.04349747 87.62856873 313.05271225 88.37839523 313.06220627 89.15094376 C313.01915921 94.57931026 311.87994778 98.71713485 308.17783737 102.77595901 C303.81232118 106.17515 300.98224583 107.25514735 295.52089024 107.26564884 C294.44696484 107.27010669 293.37303945 107.27456453 292.26657087 107.27915746 C291.08235427 107.2789731 289.89813768 107.27878873 288.67803574 107.27859879 C287.42338286 107.28227547 286.16872999 107.28595216 284.87605733 107.28974026 C281.38659395 107.29976348 277.89714778 107.30347757 274.40767205 107.30612957 C270.64679299 107.31003168 266.88592758 107.31961009 263.12505722 107.32834244 C254.03905999 107.34810959 244.95306165 107.35817342 235.86704829 107.36707023 C231.58891669 107.37145275 227.31078633 107.37681966 223.03265572 107.3820591 C208.81220666 107.3990717 194.59175837 107.41356603 180.3713007 107.42080784 C176.68059221 107.42271775 172.98988373 107.42463808 169.29917526 107.42659378 C168.3818609 107.42707752 167.46454654 107.42756126 166.51943477 107.42805966 C151.65844716 107.43636055 136.79754002 107.4616983 121.93658755 107.49417446 C106.68128491 107.52724077 91.42602318 107.54525621 76.17068452 107.54845208 C67.60451435 107.55061758 59.03846153 107.55937211 50.47232628 107.58491325 C43.17718281 107.60661442 35.88218519 107.61467358 28.5870131 107.60494647 C24.86547243 107.60040003 21.14423274 107.60230765 17.42273331 107.62170792 C13.38579594 107.64257062 9.34952679 107.63236 5.31255722 107.61917496 C4.13949424 107.6301442 2.96643125 107.64111345 1.7578209 107.6524151 C-5.07087205 107.5985069 -9.52166042 106.81977747 -15.32216263 103.13142776 C-19.44081649 98.59511692 -19.89762845 94.54554756 -19.82387161 88.63508987 C-19.8292746 87.80343811 -19.83467758 86.97178635 -19.84024429 86.11493301 C-19.85270248 83.37917847 -19.83626171 80.64448221 -19.81825638 77.90877151 C-19.81841142 76.00118327 -19.81990125 74.0935947 -19.82266617 72.18600845 C-19.82404881 68.19395853 -19.81151352 64.20226848 -19.78871536 60.21028519 C-19.76031193 55.09675077 -19.76307512 49.98381321 -19.77580547 44.87023449 C-19.78276402 40.93338305 -19.77497166 36.99666929 -19.76254845 33.05983543 C-19.75803703 31.17440761 -19.75769444 29.28896499 -19.76161385 27.40353584 C-19.76452828 24.7681732 -19.7480089 22.13363012 -19.72621536 19.49837112 C-19.73071701 18.72161026 -19.73521866 17.9448494 -19.73985672 17.14455032 C-19.67769145 12.61413355 -19.10011162 9.73969975 -16.32216263 6.13142776 C-10.96647211 1.00859335 -7.2191655 0.00984899 0 0 Z M11.67783737 32.13142776 C11.67783737 46.65142776 11.67783737 61.17142776 11.67783737 76.13142776 C100.77783737 76.13142776 189.87783737 76.13142776 281.67783737 76.13142776 C281.67783737 61.61142776 281.67783737 47.09142776 281.67783737 32.13142776 C192.57783737 32.13142776 103.47783737 32.13142776 11.67783737 32.13142776 Z " fill="#D49F2A" transform="translate(49.32216262817383,239.86857223510742)"/>
<path d="M0 0 C1.01855212 -0.0055344 2.03710423 -0.01106879 3.08652157 -0.0167709 C6.49208919 -0.03036044 9.89692182 -0.01541682 13.30247498 -0.00050354 C15.74694632 -0.00428729 18.19141552 -0.00978779 20.63587952 -0.01687622 C26.58135049 -0.02939031 32.5266275 -0.02326661 38.47207636 -0.00820064 C45.39840232 0.00868125 52.3246756 0.0054465 59.25101577 0.00170528 C71.61017142 -0.00416978 83.9692251 0.0099849 96.32835388 0.03465271 C108.316674 0.05857767 120.30485792 0.06565451 132.29319763 0.05516052 C145.35433491 0.04374792 158.41540923 0.04182507 171.47654575 0.05625862 C172.86955606 0.05778443 174.26256638 0.05930479 175.65557671 0.06081963 C176.68360811 0.06195635 176.68360811 0.06195635 177.73240783 0.06311603 C182.55874205 0.06785581 187.38504812 0.06600964 192.21138191 0.06175423 C198.70799395 0.05630956 205.20445921 0.067082 211.70103836 0.08870888 C214.08671495 0.09427811 216.47240966 0.09474081 218.85808754 0.08975601 C222.11165653 0.08380981 225.3646472 0.09629621 228.61816406 0.11352539 C229.5647583 0.10751535 230.51135254 0.1015053 231.48663145 0.09531313 C237.38201643 0.15217826 241.81237113 0.88848061 246.39012146 4.96604919 C250.70669895 10.40869038 250.89623624 14.4084083 250.90672302 21.18797302 C250.91168793 21.95759872 250.91665283 22.72722443 250.92176819 23.52017212 C250.93635278 26.06203614 250.94318572 28.60383774 250.94871521 31.14573669 C250.95446982 32.91687013 250.96022752 34.68800355 250.96598816 36.45913696 C250.97648769 40.17213734 250.98233717 43.88511614 250.98582458 47.59812927 C250.99130632 52.34601864 251.01533187 57.0936208 251.04379654 61.84142017 C251.06245932 65.50037458 251.06763046 69.15926031 251.06916046 72.81825829 C251.07217943 74.56808225 251.08018236 76.31790521 251.09334564 78.06768227 C251.11048215 80.52075923 251.10850757 82.97314103 251.10203552 85.42625427 C251.11125031 86.14286224 251.12046509 86.85947021 251.12995911 87.59779358 C251.07686515 94.05178186 249.50296777 98.52951354 245.18309021 103.37620544 C242.05532099 106.10297861 240.61412074 106.62595304 236.58067703 106.63542652 C235.70257944 106.63988437 234.82448185 106.64434221 233.91977525 106.64893514 C232.46387439 106.6486586 232.46387439 106.6486586 230.9785614 106.64837646 C229.95203075 106.65205315 228.9255001 106.65572984 227.86786246 106.65951794 C224.4055506 106.67058872 220.94326871 106.67440436 217.48094177 106.6782074 C215.00765385 106.68446946 212.53436687 106.69111602 210.06108093 106.69812012 C202.62244534 106.71737276 195.18381771 106.72795205 187.74516451 106.73684791 C184.24330915 106.74122954 180.7414553 106.74659669 177.23960114 106.75183678 C165.60041747 106.76885028 153.96123475 106.78334467 142.32204056 106.79058552 C139.30078887 106.79249546 136.27953718 106.79441578 133.25828552 106.79637146 C132.50735547 106.7968552 131.75642541 106.79733894 130.9827399 106.79783734 C118.81687057 106.80613847 106.65109955 106.83147621 94.48527315 106.86395214 C81.99854185 106.89701328 69.51186052 106.91503344 57.02508521 106.91822976 C50.01273235 106.92039579 43.00052282 106.92915782 35.98821259 106.95469093 C29.39235914 106.97865195 22.79671748 106.98222954 16.20081329 106.97192955 C13.77803694 106.97143259 11.35524813 106.97779985 8.93251038 106.9914856 C5.62821253 107.00910879 2.32485116 107.00214482 -0.97944641 106.98895264 C-1.94112409 106.99992188 -2.90280178 107.01089113 -3.89362121 107.02219278 C-9.5244769 106.96781324 -12.80863854 106.29949386 -17.25440979 102.50120544 C-21.24832667 97.86400801 -21.83408297 93.95011961 -21.77198792 88.02073669 C-21.77899719 87.19069122 -21.78600647 86.36064575 -21.79322815 85.50544739 C-21.81076583 82.77452169 -21.79920071 80.04464082 -21.78565979 77.31370544 C-21.78835593 75.40851137 -21.79223936 73.50331865 -21.79725647 71.59812927 C-21.80314578 67.61028407 -21.79460682 63.62279789 -21.77589417 59.63499451 C-21.75310498 54.53042014 -21.7662311 49.42668708 -21.79018402 44.32214355 C-21.80465731 40.38952833 -21.80002898 36.45711165 -21.78967285 32.52449036 C-21.7870098 30.64267374 -21.79026047 28.76083894 -21.79959106 26.87904358 C-21.80978194 24.24610333 -21.7942208 21.61451414 -21.77198792 18.98167419 C-21.78008484 18.20850861 -21.78818176 17.43534302 -21.79652405 16.63874817 C-21.7151744 11.42285599 -20.71120667 8.41047551 -17.25440979 4.50120544 C-11.44565277 0.3731591 -7.01889179 -0.0713883 0 0 Z M9.74559021 31.50120544 C9.74559021 46.02120544 9.74559021 60.54120544 9.74559021 75.50120544 C79.04559021 75.50120544 148.34559021 75.50120544 219.74559021 75.50120544 C219.74559021 60.98120544 219.74559021 46.46120544 219.74559021 31.50120544 C150.44559021 31.50120544 81.14559021 31.50120544 9.74559021 31.50120544 Z " fill="#D59F29" transform="translate(51.25440979003906,390.49879455566406)"/>
<path d="M0 0 C1.21550537 -0.0071553 2.43101074 -0.01431061 3.68334961 -0.02168274 C5.03248571 -0.02452294 6.38162208 -0.02723468 7.73075867 -0.02983093 C9.15002102 -0.03609665 10.56928173 -0.04274355 11.98854065 -0.04974365 C16.65089274 -0.07077176 21.31324512 -0.08114415 25.97563171 -0.09111023 C27.58116867 -0.09515811 29.18670545 -0.09927504 30.79224205 -0.10346031 C38.33462054 -0.12250842 45.87698925 -0.13674083 53.41938716 -0.14507228 C62.12427976 -0.15484682 70.82891822 -0.18117343 79.53372127 -0.22157317 C86.26333371 -0.25173372 92.99287329 -0.26654105 99.722552 -0.26985329 C103.74140175 -0.27220367 107.75997988 -0.28116234 111.7787571 -0.30631447 C115.56026222 -0.32959966 119.34131697 -0.33382691 123.12287521 -0.32355309 C124.5087846 -0.32305773 125.89471618 -0.32937819 127.28055763 -0.34310913 C140.29084178 -0.46477709 140.29084178 -0.46477709 145.17485046 4.14717102 C148.63647528 8.35725525 150.0805519 11.67785403 150.17485046 17.14717102 C148.94451628 23.3461625 146.31625446 26.61245578 141.17485046 30.14717102 C137.9979437 31.20613994 135.73251518 31.28075657 132.39439392 31.29434204 C130.58592484 31.305075 130.58592484 31.305075 128.74092102 31.31602478 C127.40281703 31.318865 126.06471276 31.32157673 124.72660828 31.32417297 C123.31882052 31.3304388 121.91103442 31.33708571 120.50325012 31.34408569 C115.87817026 31.36511498 111.25309011 31.37548726 106.62797546 31.38545227 C105.03484327 31.3895003 103.44171125 31.39361724 101.84857941 31.39780235 C94.36333003 31.41685182 86.8780905 31.43108316 79.39282155 31.43941432 C70.75698857 31.44918515 62.12141201 31.47550151 53.48566937 31.51591522 C46.80784554 31.54609202 40.13009515 31.56088469 33.45220447 31.56419533 C29.46517988 31.56654413 25.47842931 31.57548193 21.49147797 31.60065651 C17.73869593 31.62396975 13.98636769 31.62815768 10.23353195 31.61789513 C8.20594645 31.61716522 6.17838383 31.63623371 4.15089417 31.65596008 C-2.72047046 31.61675184 -7.29697508 31.38513664 -12.82514954 27.14717102 C-16.31329829 23.48014284 -17.11794854 20.57320751 -17.32514954 15.64717102 C-17.13875256 10.74759348 -16.17727642 7.87175644 -12.82514954 4.14717102 C-8.73365861 0.55161839 -5.34604344 0.02157906 0 0 Z " fill="#D59F2A" transform="translate(76.82514953613281,89.85282897949219)"/>
<path d="M0 0 C1.06734375 -0.01160156 1.06734375 -0.01160156 2.15625 -0.0234375 C8.16872737 0.99868365 12.28434826 4.70161357 16.44921875 8.890625 C17.25816338 9.69170685 17.25816338 9.69170685 18.08345032 10.50897217 C19.21572838 11.63485898 20.3441924 12.76459324 21.46899414 13.89794922 C23.18090391 15.61837112 24.91064207 17.31929944 26.64257812 19.01953125 C27.74592312 20.12126389 28.84817412 21.22409343 29.94921875 22.328125 C30.7180262 23.08008148 30.7180262 23.08008148 31.50236511 23.847229 C35.45398377 27.875928 38.21032415 32.08322892 38.71484375 37.81640625 C37.91092186 43.96471027 36.1363248 47.97834109 31.4375 52.25 C26.90217682 53.98693228 22.29092304 54.07711803 17.5 53.375 C13.13614726 51.3202095 10.00073287 48.11574496 6.6875 44.6875 C6.18541016 44.17638672 5.68332031 43.66527344 5.16601562 43.13867188 C3.93936491 41.88865638 2.71902509 40.6324532 1.5 39.375 C-3.06264924 41.28903653 -5.83468456 44.64831049 -9.18359375 48.18359375 C-14.49558517 53.2089347 -18.46291027 53.91992134 -25.6171875 53.7265625 C-29.5210649 53.25047989 -31.65730391 52.0719168 -34.5 49.375 C-37.0990635 45.70868821 -37.97428036 43.04993905 -38.0625 38.5625 C-38.10503906 37.58667969 -38.14757812 36.61085937 -38.19140625 35.60546875 C-36.27127323 26.63399976 -27.2321406 19.77291068 -21 13.5625 C-20.07574219 12.62212891 -19.15148437 11.68175781 -18.19921875 10.71289062 C-17.29816406 9.81119141 -16.39710938 8.90949219 -15.46875 7.98046875 C-14.65857422 7.16731201 -13.84839844 6.35415527 -13.01367188 5.51635742 C-9.11327129 2.19366769 -5.19678581 -0.0564868 0 0 Z " fill="#D59E29" transform="translate(421.5,74.625)"/>
</svg>
