<?xml version="1.0" encoding="UTF-8"?>
<svg version="1.1" xmlns="http://www.w3.org/2000/svg" width="512" height="512">
<path d="M0 0 C0.72058594 -0.01675781 1.44117188 -0.03351563 2.18359375 -0.05078125 C7.86256403 0.81645066 11.75484274 4.12775036 15.70996094 8.07177734 C16.18554947 8.54210892 16.661138 9.01244049 17.15113831 9.49702454 C18.70730398 11.04008109 20.25234761 12.59373824 21.796875 14.1484375 C22.88166284 15.23120233 23.96689551 16.31352167 25.05255127 17.39541626 C27.32005366 19.6585079 29.58207188 21.92690565 31.84033203 24.19921875 C34.73084801 27.10684621 37.63465237 30.00076923 40.54269028 32.8908596 C42.78378642 35.12110169 45.01767157 37.35845653 47.24945831 39.59801102 C48.31734487 40.66789403 49.38745124 41.73556624 50.45983124 42.80094528 C51.95815177 44.29162248 53.4464796 45.79162313 54.93261719 47.29443359 C56.20452911 48.56992569 56.20452911 48.56992569 57.50213623 49.8711853 C61.28276314 54.35083117 61.95275271 58.41218734 61.8203125 64.09765625 C61.44557423 67.31699869 60.30267991 69.60555347 58.5625 72.3125 C58.04036391 72.71193125 57.51822783 73.1113625 56.98026943 73.52289772 C54.79429009 76.28218532 55.15410731 79.19918446 55.19068909 82.57113647 C55.18686452 83.31590103 55.18303996 84.06066558 55.1790995 84.82799876 C55.16979128 87.3313222 55.18182062 89.83409587 55.19360352 92.33740234 C55.19113623 94.12953929 55.18729856 95.92167479 55.18218994 97.71380615 C55.17383926 101.57871672 55.17467063 105.44348002 55.18237495 109.30839157 C55.19394979 115.42837087 55.18179972 121.54816053 55.16575623 127.66812134 C55.12953821 142.87850792 55.12332483 158.08889063 55.12585449 173.29931641 C55.12756864 185.10270916 55.12034047 196.90594715 55.08587593 208.70929682 C55.06914058 214.78312182 55.0708276 220.85656888 55.08669865 226.93039203 C55.09252826 230.72670215 55.08169606 234.52283628 55.06645203 238.31911469 C55.06275003 240.06811823 55.06576297 241.8171522 55.07632256 243.56612778 C55.18358882 262.61648118 50.1961657 279.03365346 36.89233398 293.19970703 C24.89827869 305.30566615 9.17124323 311.49463805 -7.6569522 311.58464891 C-8.82874516 311.58086958 -10.00053813 311.57709026 -11.20783997 311.57319641 C-12.47296423 311.57702196 -13.7380885 311.58084751 -15.04154986 311.58478898 C-18.5325678 311.59502972 -22.02348259 311.59289723 -25.51450884 311.58860838 C-29.28763271 311.58613398 -33.0607322 311.59516421 -36.83384705 311.60264587 C-44.21811815 311.61537539 -51.60235287 311.61718872 -58.9866331 311.61484561 C-64.99127786 311.61306022 -70.9959116 311.61481683 -77.00055504 311.61907005 C-77.85623294 311.61966524 -78.71191084 311.62026043 -79.59351837 311.62087366 C-81.33202579 311.62208545 -83.07053321 311.62329959 -84.80904063 311.62451603 C-101.10202311 311.63538498 -117.39498487 311.63323222 -133.68796851 311.62713119 C-148.57819264 311.62196344 -163.46835132 311.63321486 -178.35856251 311.65222941 C-193.66379952 311.67162343 -208.9690056 311.67986101 -224.27425498 311.67610615 C-232.86055543 311.67419638 -241.44680019 311.67665981 -250.03309059 311.69082069 C-257.3433358 311.70275546 -264.65349104 311.70411599 -271.96373753 311.69203053 C-275.68981046 311.68615632 -279.41571902 311.68500172 -283.14178085 311.69703293 C-287.19005282 311.70995204 -291.23793636 311.69939264 -295.28620911 311.6867218 C-297.0338603 311.69778323 -297.0338603 311.69778323 -298.81681758 311.70906812 C-316.66072311 311.59197336 -332.23184722 304.83653618 -344.78125 292.22265625 C-352.70967442 283.53636773 -357.09823666 274.43382341 -360.4375 263.3125 C-360.61823657 262.7421701 -360.79897314 262.17184019 -360.98518658 261.58422756 C-361.62452105 258.37319367 -361.58553536 255.19389429 -361.58467102 251.93360901 C-361.58834771 251.18799003 -361.5920244 250.44237105 -361.5958125 249.67415756 C-361.60683074 247.17412214 -361.61069009 244.67412831 -361.61450195 242.17407227 C-361.62076823 240.38178882 -361.62741518 238.58950668 -361.63441467 236.79722595 C-361.6554458 230.90779523 -361.66581926 225.0183643 -361.67578125 219.12890625 C-361.67982979 217.09850488 -361.68394674 215.06810365 -361.68813133 213.03770256 C-361.70718447 203.4935864 -361.72141271 193.94947797 -361.7297433 184.40534645 C-361.73950297 173.40661697 -361.76578879 162.40808942 -361.80624419 151.40943104 C-361.83647075 142.89796329 -361.85121855 134.38655319 -361.85452431 125.87503284 C-361.85686821 120.79685722 -361.86574182 115.71889729 -361.89098549 110.6407795 C-361.91438445 105.8562792 -361.9184522 101.07213477 -361.90822411 96.28759193 C-361.90773142 94.54018719 -361.91397205 92.79276423 -361.92778015 91.04541397 C-362.07754526 70.95414013 -356.48828062 54.73917653 -342.30859375 40.1171875 C-332.63830285 31.01777245 -318.23292486 23.09688025 -304.62831116 23.22970104 C-303.17183969 23.23999034 -303.17183969 23.23999034 -301.68594456 23.25048751 C-300.62177279 23.26315179 -299.55760103 23.27581608 -298.46118164 23.28886414 C-297.3284806 23.29803747 -296.19577955 23.30721081 -295.02875423 23.31666213 C-292.54072628 23.3372759 -290.05271663 23.3601934 -287.56472778 23.38508415 C-281.37666669 23.44666165 -275.1885016 23.49398697 -269.00032592 23.5424064 C-266.7769578 23.55997463 -264.55359528 23.57815774 -262.33023262 23.59640157 C-251.49618175 23.68394429 -240.66220952 23.74095333 -229.82788086 23.77998352 C-229.04356599 23.78283846 -228.25925112 23.7856934 -227.45116913 23.78863486 C-220.16585368 23.81485691 -212.88053187 23.83882627 -205.59520149 23.86050355 C-200.59862011 23.87540565 -195.60204318 23.89136962 -190.60546875 23.90844727 C-189.36067287 23.91267891 -189.36067287 23.91267891 -188.09072959 23.91699604 C-174.67930021 23.96461761 -161.2692487 24.07991221 -147.85849965 24.219615 C-134.0674767 24.3616473 -120.27757512 24.42672877 -106.485816 24.42263252 C-97.99249689 24.42255882 -89.5039256 24.48145667 -81.01169193 24.61838041 C-75.17437058 24.70679308 -69.33974861 24.72007051 -63.50193322 24.67684456 C-60.1405473 24.65411923 -56.7941972 24.67329823 -53.43289185 24.76052666 C-37.28486321 25.19165911 -37.28486321 25.19165911 -23.44406128 17.77305031 C-19.06917497 13.5844655 -15.1232978 9.11159851 -11.39815426 4.33825237 C-8.14440576 0.97647214 -4.58883444 0.02453922 0 0 Z M-6.97364807 46.58035278 C-7.66462285 47.25495068 -8.35559762 47.92954859 -9.06751102 48.62458885 C-11.4025315 50.90607507 -13.73370003 53.19145459 -16.06469727 55.47705078 C-17.72977955 57.10642903 -19.39493213 58.73573544 -21.06015015 60.36497498 C-36.2980816 75.2850407 -51.47031777 90.27188026 -66.62422276 105.27722359 C-68.65513617 107.28787109 -70.68624759 109.29831833 -72.7175293 111.30859375 C-73.22237769 111.80823682 -73.72722609 112.30787988 -74.24737292 112.82266365 C-82.40556177 120.89440997 -90.60318363 128.92490613 -98.81674946 136.94025244 C-107.2561319 145.17765035 -115.65280837 153.45681164 -124.01160091 161.77598369 C-128.7030436 166.44286758 -133.41305167 171.08804185 -138.1699543 175.68832779 C-142.65348074 180.02561248 -147.08159674 184.4127548 -151.47394943 188.84228706 C-153.08827531 190.45218365 -154.72133327 192.04356366 -156.37451363 193.61353493 C-164.31395173 201.17318154 -170.12024237 207.00776113 -170.48008913 218.40119159 C-170.37435242 222.7420792 -170.04733232 227.01354424 -169.4375 231.3125 C-160.47864611 232.58466776 -150.55877039 233.9040608 -142.70825577 228.61256409 C-137.88864754 224.73906397 -133.67466802 220.27682299 -129.42626953 215.79882812 C-127.76275407 214.12909585 -126.09435698 212.46421516 -124.42152405 210.80381775 C-119.92403591 206.31260583 -115.4973181 201.75716909 -111.08081675 197.18648338 C-106.9137241 192.89526253 -102.69537125 188.65527569 -98.47713505 184.41446048 C-90.13210202 176.02145631 -81.83722711 167.58067306 -73.57324219 159.10791016 C-65.55276272 150.88501984 -57.50914724 142.6859152 -49.43359375 134.51708984 C-48.93457141 134.01228759 -48.43554908 133.50748534 -47.92140485 132.98738605 C-45.41743281 130.45470001 -42.9130019 127.92246829 -40.4083426 125.39046192 C-19.67986252 104.43447369 0.96687919 83.39908958 21.5625 62.3125 C20.60570234 61.19051611 19.64809219 60.06922505 18.69013977 58.94822693 C18.1569579 58.32373374 17.62377604 57.69924055 17.07443714 57.05582333 C15.36079434 55.0799254 13.57801252 53.19872827 11.73046875 51.34765625 C11.07755859 50.69345703 10.42464844 50.03925781 9.75195312 49.36523438 C9.09130859 48.70845703 8.43066406 48.05167969 7.75 47.375 C7.07001953 46.69115234 6.39003906 46.00730469 5.68945312 45.30273438 C5.04298828 44.65755859 4.39652344 44.01238281 3.73046875 43.34765625 C3.14547607 42.7637915 2.5604834 42.17992676 1.95776367 41.57836914 C-1.44671554 38.48961591 -4.47129407 44.12422594 -6.97364807 46.58035278 Z M-321.8125 66.5625 C-328.11813046 74.63656506 -329.55675847 84.15666238 -329.57121277 94.15447998 C-329.57347833 94.80606811 -329.57574388 95.45765624 -329.57807809 96.12898946 C-329.58436252 98.29271719 -329.58359233 100.45638139 -329.58276367 102.62011719 C-329.58575867 104.17963745 -329.58916198 105.73915698 -329.59294128 107.29867554 C-329.6017516 111.52200939 -329.60411817 115.74532297 -329.60475707 119.96866512 C-329.60546935 122.61159156 -329.60760705 125.25451289 -329.61025429 127.89743805 C-329.61949844 137.13019639 -329.62359041 146.36294031 -329.62280273 155.59570312 C-329.62220244 164.18153935 -329.6327471 172.76731265 -329.6485464 181.35313296 C-329.66165354 188.74107365 -329.66698529 196.12899386 -329.66634732 203.51694608 C-329.66609324 207.92201277 -329.66889488 212.32702352 -329.67952538 216.73207855 C-329.68925972 220.87880004 -329.68924923 225.02541272 -329.68200874 229.17213821 C-329.68096945 230.68655431 -329.68328646 232.20097738 -329.6893692 233.71538162 C-329.7409782 247.46440276 -329.28423994 259.3913898 -319.83984375 270.12890625 C-310.30808077 279.11985999 -298.0879223 279.46371802 -285.73614502 279.44621277 C-284.56186219 279.44847833 -283.38757936 279.45074388 -282.1777122 279.45307809 C-278.93110048 279.45830161 -275.6845237 279.45906497 -272.43790913 279.45788372 C-268.93130919 279.45767918 -265.42471744 279.46320355 -261.91812134 279.46794128 C-255.05262084 279.47623704 -248.18712893 279.47899564 -241.32162383 279.47955366 C-235.73883634 279.48002936 -230.15605167 279.48208678 -224.57326508 279.48525429 C-208.73313479 279.49405813 -192.89301128 279.49867412 -177.05287853 279.49792381 C-176.19947158 279.49788386 -175.34606464 279.4978439 -174.46679688 279.49780273 C-173.61234375 279.49776185 -172.75789062 279.49772097 -171.87754497 279.49767885 C-158.03410985 279.49727252 -144.19070194 279.5068396 -130.34727469 279.5209411 C-116.12127192 279.53531755 -101.89528241 279.54221058 -87.66927218 279.54134732 C-79.68716962 279.54101578 -71.70509558 279.54374414 -63.72299957 279.55452538 C-56.92616135 279.56364711 -50.1293646 279.56579193 -43.3325229 279.55901595 C-39.8678766 279.55575911 -36.40330977 279.5556637 -32.93867111 279.5643692 C-29.17464002 279.57210073 -25.41081627 279.56743638 -21.64678955 279.55973816 C-20.56301254 279.56488172 -19.47923552 279.57002529 -18.36261678 279.57532471 C-6.18207195 279.5204504 3.99846041 277.96560149 13.37890625 269.71484375 C22.85841896 259.66513479 22.71256976 246.71364984 22.67602539 233.75805664 C22.67574299 232.38758344 22.67590229 231.01711008 22.6764679 229.64663696 C22.6767538 225.94261077 22.67089052 222.23861722 22.66389394 218.53459859 C22.65762595 214.65754314 22.65705388 210.78048686 22.65586853 206.90342712 C22.65276536 199.56900623 22.64456566 192.23460031 22.63451904 184.900186 C22.62332638 176.54710124 22.61783952 168.19401574 22.61282361 159.84092534 C22.60238218 142.66477491 22.58480241 125.48863904 22.5625 108.3125 C17.90121685 112.20745813 13.48241634 116.25221569 9.20491028 120.56329346 C8.60555292 121.16320752 8.00619557 121.76312158 7.38867587 122.38121486 C5.39971128 124.37319282 3.41434992 126.36872239 1.42895508 128.36425781 C-0.00376145 129.80053387 -1.43671553 131.236573 -2.86988831 132.6723938 C-5.94596419 135.75500097 -9.02052523 138.83910826 -12.09395409 141.92435455 C-16.95254538 146.80128006 -21.81551814 151.67382059 -26.67927551 156.54559326 C-40.50567956 170.39612047 -54.32613855 184.252571 -68.14233398 198.11328125 C-75.7802245 205.77570302 -83.42169117 213.43454025 -91.06702691 221.08953357 C-95.90463291 225.93368737 -100.73769435 230.78231655 -105.56746137 235.63428545 C-108.56797357 238.64650861 -111.57264014 241.65456045 -114.57851219 244.66143417 C-115.9734653 246.05853859 -117.36669156 247.45736961 -118.75807571 248.85802841 C-120.65442894 250.76653414 -122.55681883 252.66881106 -124.46086121 254.56964111 C-125.28833958 255.40688119 -125.28833958 255.40688119 -126.13253468 256.2610352 C-130.73645801 260.83470992 -133.56617927 262.55304001 -140.02880859 262.60302734 C-141.15032318 262.61578705 -142.27183777 262.62854675 -143.42733765 262.64169312 C-144.6346756 262.64391876 -145.84201355 262.64614441 -147.0859375 262.6484375 C-148.33122223 262.6550943 -149.57650696 262.6617511 -150.85952759 262.66860962 C-153.49406223 262.67873618 -156.12818419 262.68429182 -158.76269531 262.68310547 C-161.45925668 262.68294274 -164.15514012 262.69685399 -166.8515625 262.72412109 C-170.74239873 262.76076424 -174.63244594 262.77057839 -178.5234375 262.7734375 C-179.72672699 262.78780853 -180.93001648 262.80217957 -182.16976929 262.81698608 C-192.80278582 262.75897348 -192.80278582 262.75897348 -197.4375 258.3125 C-200.05527354 254.62625148 -200.81682043 252.10919842 -200.84155273 247.60766602 C-200.86057899 245.92550743 -200.86057899 245.92550743 -200.87998962 244.20936584 C-200.87705399 243.00718918 -200.87411835 241.80501251 -200.87109375 240.56640625 C-200.8763356 239.32253647 -200.88157745 238.07866669 -200.88697815 236.79710388 C-200.8950381 233.49654659 -200.8879395 230.19640561 -200.87664795 226.89587402 C-200.87500261 224.87820454 -200.88698146 222.86109847 -200.90405273 220.84350586 C-200.93474268 216.95920493 -200.93813471 213.07580906 -200.93359375 209.19140625 C-200.94482773 207.99125381 -200.95606171 206.79110138 -200.96763611 205.55458069 C-200.95825516 204.42998947 -200.94887421 203.30539825 -200.93920898 202.14672852 C-200.93904282 201.16253433 -200.93887665 200.17834015 -200.93870544 199.1643219 C-199.86310743 193.04424875 -195.1504483 188.73701122 -190.86932373 184.51054382 C-190.31871001 183.95892682 -189.7680963 183.40730982 -189.20079732 182.83897716 C-187.36611422 181.00334618 -185.52440167 179.1749391 -183.68261719 177.34643555 C-182.36140971 176.02743059 -181.04065083 174.70797617 -179.7203064 173.3881073 C-176.88255396 170.55328266 -174.04168045 167.72163701 -171.19832611 164.89243126 C-166.70668773 160.42307754 -162.22216539 155.94662917 -157.73858643 151.4691925 C-150.65223277 144.39420864 -143.56121845 137.32391732 -136.4681561 130.25565988 C-123.74836499 117.58026471 -111.03423131 104.89920056 -98.32523465 92.21298248 C-93.86205488 87.75823374 -89.39608243 83.30630876 -84.92787886 78.85659921 C-82.15779321 76.09711467 -79.38970313 73.33563489 -76.6221199 70.57364082 C-75.33295401 69.28796126 -74.04291663 68.0031549 -72.7519722 66.71926117 C-70.99828784 64.97494925 -69.24764002 63.22764674 -67.4977417 61.47953796 C-66.97908311 60.96515645 -66.46042451 60.45077494 -65.92604899 59.92080611 C-63.50079738 57.95701577 -63.50079738 57.95701577 -62.4375 55.3125 C-92.18786285 55.26683145 -121.93822452 55.23145828 -151.68861489 55.21036934 C-155.20443798 55.20786806 -158.720261 55.2052794 -162.23608398 55.20263672 C-162.93599304 55.2021121 -163.6359021 55.20158748 -164.35702052 55.20104696 C-175.67572122 55.19235481 -186.99440151 55.17659141 -198.31309012 55.15819441 C-209.93531994 55.13946221 -221.55753789 55.12852587 -233.17978209 55.12432301 C-239.70435091 55.12171817 -246.22887351 55.11560574 -252.75342751 55.10103989 C-258.8986276 55.0874325 -265.04376256 55.08328377 -271.18897629 55.08628464 C-273.44032712 55.08573589 -275.69168019 55.08177734 -277.94301796 55.07408905 C-281.02648813 55.06407842 -284.10971525 55.06655339 -287.19319153 55.07199097 C-288.51668892 55.06325244 -288.51668892 55.06325244 -289.86692363 55.05433738 C-302.17273891 55.11263956 -313.08046233 57.30522698 -321.8125 66.5625 Z " fill="#D59F29" transform="translate(405.4375,100.6875)"/>
<path d="M0 0 C1.04462402 -0.00700928 2.08924805 -0.01401855 3.16552734 -0.02124023 C6.61062381 -0.0388121 10.05489551 -0.02719969 13.5 -0.01367188 C15.8984391 -0.016367 18.29687714 -0.0202496 20.6953125 -0.02526855 C25.71885595 -0.03116254 30.74211467 -0.02260346 35.765625 -0.00390625 C42.20189072 0.01888275 48.63748922 0.00575921 55.07373047 -0.01819611 C60.02544168 -0.03265649 64.97699495 -0.02804688 69.92871094 -0.01768494 C72.30175862 -0.01501834 74.67482068 -0.01828502 77.04785156 -0.02760315 C80.36562028 -0.03777219 83.68231145 -0.02226121 87 0 C88.46832275 -0.01214539 88.46832275 -0.01214539 89.96630859 -0.02453613 C95.66037885 0.04617256 98.99980593 0.68240588 103.5 4.51757812 C107.12833663 8.33687985 107.81000458 11.40036819 108 16.51757812 C107.81000458 21.63478806 107.12833663 24.6982764 103.5 28.51757812 C98.44357099 32.67586953 94.86258981 33.06973024 88.6015625 32.90820312 C87.76660248 32.90254333 86.93164246 32.89688354 86.07138062 32.89105225 C83.42198734 32.86878036 80.77397984 32.81860336 78.125 32.76757812 C76.32163421 32.74750115 74.51824708 32.72925248 72.71484375 32.71289062 C68.30936731 32.66894598 63.90491806 32.59998413 59.5 32.51757812 C59.50888245 33.58166901 59.51776489 34.64575989 59.5269165 35.74209595 C59.60804948 45.77657758 59.66798808 55.81099254 59.70724869 65.84572792 C59.72811166 71.00455027 59.75640597 76.16310754 59.80175781 81.32177734 C59.84526124 86.30143205 59.86914681 91.28083199 59.87950897 96.26066208 C59.88689224 98.15926498 59.90131014 100.05785415 59.92292023 101.95634842 C59.95201408 104.61850215 59.95595352 107.27960706 59.95410156 109.94189453 C59.96848267 110.72448639 59.98286377 111.50707825 59.99768066 112.31338501 C59.95867869 117.50450542 58.87714768 120.37133817 55.5 124.51757812 C51.68069828 128.14591476 48.61720994 128.82758271 43.5 129.01757812 C38.38279006 128.82758271 35.31930172 128.14591476 31.5 124.51757812 C27.44499954 119.53911507 26.93290106 116.09099327 27.04589844 109.94189453 C27.04531433 109.1022113 27.04473022 108.26252808 27.04412842 107.3973999 C27.04690261 104.63755133 27.0779625 101.8787992 27.109375 99.11914062 C27.11683977 97.19958079 27.12253159 95.28001331 27.12652588 93.36044312 C27.14176362 88.3198322 27.18102946 83.2796858 27.2253418 78.23925781 C27.26633461 73.09120975 27.28454546 67.94308628 27.3046875 62.79492188 C27.34752546 52.7022704 27.41575431 42.60996296 27.5 32.51757812 C26.38028809 32.53852539 25.26057617 32.55947266 24.10693359 32.58105469 C19.93616623 32.65368239 15.76545432 32.69946023 11.59423828 32.73730469 C9.79205919 32.75736845 7.98994479 32.78462625 6.18798828 32.81933594 C3.59130864 32.86808641 0.99549271 32.89059894 -1.6015625 32.90820312 C-2.80191635 32.93917084 -2.80191635 32.93917084 -4.02651978 32.97076416 C-9.33916147 32.97287517 -12.26422625 32.00098144 -16.5 28.51757812 C-20.12833663 24.6982764 -20.81000458 21.63478806 -21 16.51757812 C-20.81000458 11.40036819 -20.12833663 8.33687985 -16.5 4.51757812 C-11.13277344 -0.0564998 -6.72889928 -0.0556588 0 0 Z " fill="#D59E29" transform="translate(128.5,187.482421875)"/>
</svg>
