<?xml version="1.0" encoding="UTF-8"?>
<svg version="1.1" xmlns="http://www.w3.org/2000/svg" width="512" height="512">
<path d="M0 0 C1.8733474 -0.00542577 3.74669053 -0.01255098 5.62002563 -0.02124023 C10.68802292 -0.03941859 15.75569317 -0.03242974 20.8236959 -0.01972389 C26.13400363 -0.00957227 31.44428402 -0.01899516 36.7545929 -0.02526855 C45.6676637 -0.03253675 54.58060172 -0.02297697 63.49365234 -0.00390625 C73.79518397 0.01788089 84.09639915 0.01079437 94.39792317 -0.01121187 C103.25080659 -0.02936553 112.10359479 -0.03192495 120.95649081 -0.0214572 C126.24056965 -0.01522468 131.52449971 -0.01438047 136.80856895 -0.02760315 C141.77373069 -0.03916118 146.73848419 -0.03113667 151.70360184 -0.00802612 C153.52488464 -0.00273966 155.34620184 -0.00425174 157.16747093 -0.01307678 C159.65485014 -0.02401806 162.14092348 -0.01028702 164.6282196 0.00964355 C165.7075521 -0.00374078 165.7075521 -0.00374078 166.8086893 -0.0173955 C171.83709997 0.06068904 174.6465637 1.40061121 178.5402832 4.51757812 C182.16861984 8.33687985 182.85028778 11.40036819 183.0402832 16.51757812 C182.85028778 21.63478806 182.16861984 24.6982764 178.5402832 28.51757812 C174.00498172 32.12711776 170.58128499 33.09427932 164.90933228 32.99859619 C163.78683266 33.00372274 163.78683266 33.00372274 162.64165628 33.00895286 C160.14474241 33.01551931 157.64891372 32.99357728 155.15209961 32.97167969 C153.35813421 32.97055094 151.56416696 32.97118561 149.77020264 32.97344971 C144.90691437 32.97459671 140.04402125 32.95108957 135.18082476 32.92315388 C130.09594256 32.89813797 125.01105118 32.89579807 119.92611694 32.89105225 C110.30016955 32.87862305 100.674404 32.84580211 91.04853666 32.80565429 C78.03893912 32.75257209 65.0292918 32.73099066 52.01961327 32.70764542 C31.52636705 32.67004074 11.03350458 32.59034948 -9.4597168 32.51757812 C-9.4597168 85.31757813 -9.4597168 138.11757813 -9.4597168 192.51757812 C117.2602832 192.51757812 243.9802832 192.51757812 374.5402832 192.51757812 C374.5402832 174.69757813 374.5402832 156.87757813 374.5402832 138.51757812 C379.712697 130.75895744 379.712697 130.75895744 384.5402832 128.51757812 C390.1400544 127.76376277 394.87528312 127.74454237 400.0402832 130.14257812 C405.10828246 134.95717742 406.75630541 137.75781648 407.08959961 144.79150391 C407.12948464 147.34838105 407.14540546 149.90570489 407.1418457 152.46289062 C407.14963427 153.8380484 407.15830659 155.21320143 407.16781616 156.58834839 C407.18270673 159.46823719 407.18218727 162.34763567 407.17163086 165.22753906 C407.16009689 168.88593116 407.19377556 172.54227957 407.24032021 176.20033455 C407.2700649 179.04207748 407.27150167 181.88334482 407.26530075 184.72521591 C407.26680328 186.71909289 407.29435526 188.71289689 407.32266235 190.70657349 C407.22577658 200.35841714 405.09186087 208.40919295 398.54507446 215.75686646 C389.42350182 224.59444784 379.39278609 225.1016302 367.27726746 225.03897095 C365.61987553 225.04501725 363.96248919 225.05279787 362.30511266 225.06215608 C357.76508471 225.08269199 353.22537306 225.07835881 348.6853193 225.06979489 C343.78332716 225.06485598 338.88141073 225.08289424 333.97944641 225.09786987 C324.38131741 225.12335617 314.78330034 225.12695221 305.1851432 225.12226935 C297.38224397 225.11870171 289.5793787 225.12220505 281.77648354 225.13071823 C280.6654724 225.13190861 279.55446127 225.13309899 278.40978313 225.13432544 C276.1526717 225.13674897 273.89556029 225.13917724 271.63844887 225.14161019 C250.4754215 225.16335847 229.31245788 225.15903759 208.14942691 225.1468405 C188.79724526 225.13650337 169.44526498 225.1590102 150.09312316 225.19703694 C130.21358307 225.23579997 110.33413823 225.25230459 90.4545601 225.24479043 C79.29721183 225.24096715 68.14003493 225.24593398 56.98271751 225.27421951 C47.4838623 225.2980572 37.98528394 225.30084596 28.48642489 225.27663918 C23.6422833 225.26486828 18.798648 225.26264311 13.95454025 225.28664398 C9.51478304 225.30838532 5.07595404 225.30212943 0.63624004 225.27412061 C-0.96463555 225.26883295 -2.56558416 225.27354056 -4.16638801 225.28959234 C-14.99190486 225.39055707 -24.26704894 224.05338166 -32.6915763 216.52245486 C-34.58302082 214.57834053 -36.02577886 212.82905621 -37.4597168 210.51757812 C-37.79043371 209.98917989 -38.12115063 209.46078165 -38.46188927 208.91637135 C-42.6141381 201.15295724 -42.03740848 192.89500044 -42.0090332 184.34643555 C-42.01773848 182.61089708 -42.02810845 180.8753663 -42.04000854 179.1398468 C-42.0666952 174.44542156 -42.06795631 169.75131929 -42.06288195 165.05683303 C-42.06073583 161.12818247 -42.07052647 157.19959636 -42.08009279 153.27095968 C-42.10225154 143.99658967 -42.10317621 134.72238169 -42.09106445 125.44799805 C-42.07899038 115.90308919 -42.10359948 106.35877038 -42.14620459 96.81396216 C-42.18151669 88.5987611 -42.19342666 80.38374716 -42.18692911 72.16847306 C-42.18331526 67.27086061 -42.18845567 62.37366896 -42.21635818 57.47612572 C-42.2416368 52.86700354 -42.23751444 48.25879606 -42.21153641 43.64968681 C-42.20683168 41.96636893 -42.21217763 40.28298545 -42.22878265 38.59974289 C-42.33040956 27.48937916 -41.21979555 17.95076198 -33.46457863 9.28929424 C-31.52091146 7.39444513 -29.77291833 5.95258521 -27.4597168 4.51757812 C-26.94626803 4.186493 -26.43281927 3.85540787 -25.90381145 3.51428986 C-17.86179275 -0.86862505 -8.88258141 -0.04319796 0 0 Z " fill="#D59E29" transform="translate(73.459716796875,159.482421875)"/>
<path d="M0 0 C1.83339432 -0.01279495 1.83339432 -0.01279495 3.7038269 -0.02584839 C5.04516615 -0.02514947 6.38650529 -0.02422646 7.72784424 -0.02310181 C9.150913 -0.02909111 10.57397851 -0.03589758 11.99703979 -0.04345703 C15.85262235 -0.06108563 19.70811605 -0.06581114 23.56373501 -0.0670886 C25.97632959 -0.0685128 28.38890178 -0.07278752 30.80149078 -0.07808304 C39.22910489 -0.09657451 47.65665583 -0.10475496 56.08428955 -0.10317993 C63.92210868 -0.10197949 71.759652 -0.12306482 79.59740138 -0.15466726 C86.34073573 -0.18088141 93.08398029 -0.19154505 99.82736516 -0.19026911 C103.84851744 -0.18976089 107.8694246 -0.19536597 111.89052582 -0.21662521 C115.67620769 -0.23609403 119.46141286 -0.23607377 123.24711227 -0.22159195 C125.28481119 -0.21852834 127.3225106 -0.23512049 129.36013794 -0.25247192 C138.24005139 -0.1920821 144.97027188 1.30186356 152.55303955 5.95492554 C160.83079249 14.46261606 163.10378185 22.66109541 163.09356689 34.25473022 C163.10028412 35.3514505 163.10700134 36.44817078 163.11392212 37.578125 C163.132897 41.19856313 163.13682625 44.81881579 163.13897705 48.43930054 C163.14540586 50.96267777 163.15213428 53.48605426 163.15914917 56.00942993 C163.17112106 61.29857409 163.17491594 66.58764947 163.17364502 71.87680054 C163.17244517 77.9696424 163.19352109 84.06212915 163.22513235 90.15488124 C163.25455534 96.03779034 163.26161785 101.92056025 163.26042557 107.80353546 C163.26277942 110.29609882 163.2715907 112.78866505 163.2870903 115.28118134 C163.30678177 118.77526423 163.30089866 122.26844393 163.28887939 125.76254272 C163.30011841 126.78314789 163.31135742 127.80375305 163.32293701 128.85528564 C163.25356998 136.82883053 161.28686678 143.21970709 157.11553955 150.01742554 C150.39987436 156.55158626 143.09309775 160.50480054 133.6060791 160.53485107 C131.77268478 160.54764603 131.77268478 160.54764603 129.9022522 160.56069946 C128.56091296 160.56000054 127.21957382 160.55907754 125.87823486 160.55795288 C124.45516611 160.56394218 123.03210059 160.57074865 121.60903931 160.57830811 C117.75345676 160.5959367 113.89796305 160.60066222 110.04234409 160.60193968 C107.62974951 160.60336387 105.21717732 160.6076386 102.80458832 160.61293411 C94.37697421 160.63142558 85.94942327 160.63960603 77.52178955 160.63803101 C69.68397042 160.63683057 61.8464271 160.65791589 54.00867772 160.68951833 C47.26534338 160.71573248 40.52209881 160.72639612 33.77871394 160.72512019 C29.75756167 160.72461196 25.7366545 160.73021704 21.71555328 160.75147629 C17.92987141 160.77094511 14.14466624 160.77092485 10.35896683 160.75644302 C8.32126791 160.75337941 6.28356851 160.76997156 4.24594116 160.787323 C-4.63397228 160.72693318 -11.36419278 159.23298752 -18.94696045 154.57992554 C-27.22471339 146.07223502 -29.49770275 137.87375566 -29.48748779 126.28012085 C-29.49420502 125.18340057 -29.50092224 124.0866803 -29.50784302 122.95672607 C-29.52681789 119.33628794 -29.53074715 115.71603528 -29.53289795 112.09555054 C-29.53932676 109.5721733 -29.54605518 107.04879682 -29.55307007 104.52542114 C-29.56504196 99.23627698 -29.56883684 93.9472016 -29.56756592 88.65805054 C-29.56636607 82.56520867 -29.58744198 76.47272192 -29.61905324 70.37996984 C-29.64847624 64.49706073 -29.65553875 58.61429083 -29.65434647 52.73131561 C-29.65670032 50.23875225 -29.6655116 47.74618602 -29.6810112 45.25366974 C-29.70070267 41.75958685 -29.69481956 38.26640715 -29.68280029 34.77230835 C-29.69403931 33.75170319 -29.70527832 32.73109802 -29.71685791 31.67956543 C-29.64749088 23.70602054 -27.68078768 17.31514398 -23.50946045 10.51742554 C-16.79379526 3.98326481 -9.48701865 0.03005053 0 0 Z M19.80303955 32.26742554 C22.88459966 34.73267362 25.81629531 37.03259383 29.05499268 39.23178101 C30.26149475 40.05185135 30.26149475 40.05185135 31.49237061 40.88848877 C35.13009483 43.33915126 38.7733179 45.78137399 42.42266846 48.21469116 C44.34789547 49.5031801 46.2681454 50.79913598 48.18341064 52.10238647 C50.95142007 53.98503123 53.73439343 55.8433327 56.52178955 57.69711304 C57.3771228 58.28547943 58.23245605 58.87384583 59.1137085 59.4800415 C59.91804321 60.0078421 60.72237793 60.5356427 61.55108643 61.07943726 C62.25326294 61.55146576 62.95543945 62.02349426 63.67889404 62.50982666 C65.85566189 63.51800733 65.85566189 63.51800733 68.34043884 62.54536438 C70.46168011 61.44457017 72.46671893 60.32834846 74.456604 59.00839233 C75.13113113 58.56420456 75.80565826 58.12001678 76.50062561 57.66236877 C77.21530502 57.18527969 77.92998444 56.70819061 78.6663208 56.21664429 C79.41713425 55.72082352 80.16794769 55.22500275 80.94151306 54.7141571 C83.33568594 53.13197582 85.72574198 51.54370596 88.11553955 49.95492554 C90.4954168 48.37808473 92.87613985 46.80253363 95.25743103 45.22782898 C96.73549288 44.24983763 98.21261771 43.27042802 99.68861389 42.2893219 C103.85593615 39.52539339 108.06235345 36.85208973 112.3434906 34.26725769 C113.06596733 33.77234077 113.06596733 33.77234077 113.80303955 33.26742554 C113.80303955 32.93742554 113.80303955 32.60742554 113.80303955 32.26742554 C82.78303955 32.26742554 51.76303955 32.26742554 19.80303955 32.26742554 Z M2.80303955 61.26742554 C2.80303955 83.37742554 2.80303955 105.48742554 2.80303955 128.26742554 C45.04303955 128.26742554 87.28303955 128.26742554 130.80303955 128.26742554 C130.80303955 106.15742554 130.80303955 84.04742554 130.80303955 61.26742554 C127.17303955 63.57742554 123.54303955 65.88742554 119.80303955 68.26742554 C117.47115017 69.70726672 115.13792317 71.14494498 112.80303955 72.57992554 C107.46611897 75.8781438 102.2232307 79.30470646 97.0178833 82.80648804 C96.42101715 83.20746201 95.824151 83.60843597 95.209198 84.02156067 C92.20282308 86.04285424 89.20171344 88.07141943 86.20733643 90.11044312 C85.08181004 90.8699866 83.95616394 91.62935271 82.8303833 92.38851929 C81.83772461 93.06326294 80.84506592 93.73800659 79.82232666 94.43319702 C74.50209566 97.66525779 69.71724941 100.13385704 63.40997314 98.9937439 C51.79409314 95.75744094 40.58622995 85.88500279 30.67803955 79.20492554 C28.29484942 77.60004368 25.91091092 75.996318 23.5249939 74.39549255 C22.05400755 73.40838871 20.58452977 72.41903093 19.11697388 71.42683411 C13.7701807 67.83657793 8.34705025 64.59383196 2.80303955 61.26742554 Z " fill="#D59F29" transform="translate(317.19696044921875,111.73257446289063)"/>
</svg>
