<?xml version="1.0" encoding="UTF-8"?>
<svg version="1.1" xmlns="http://www.w3.org/2000/svg" width="512" height="512">
<path d="M0 0 C1.07721313 -0.00671722 2.15442627 -0.01343445 3.26428223 -0.02035522 C6.81978998 -0.03932771 10.37510885 -0.04325924 13.93066406 -0.04541016 C16.40920082 -0.05183915 18.88773681 -0.05856759 21.36627197 -0.06558228 C26.5612565 -0.07755358 31.75617453 -0.0812633 36.95117188 -0.08007812 C43.59325039 -0.07987508 50.23488956 -0.10716377 56.87688828 -0.14162254 C61.99686626 -0.163911 67.11674148 -0.16791504 72.236763 -0.16685867 C74.68466924 -0.1692122 77.13257842 -0.17802163 79.58043671 -0.19352341 C83.01225879 -0.21321956 86.44316166 -0.20732999 89.875 -0.1953125 C90.87690369 -0.20655151 91.87880737 -0.21779053 92.91107178 -0.22937012 C101.98672095 -0.14901281 109.93854196 2.30510788 116.66503906 8.58740234 C123.85544255 16.58489194 125.49622762 24.60700969 125.48681641 35.09423828 C125.49353363 36.17145142 125.50025085 37.24866455 125.50717163 38.35852051 C125.52614412 41.91402827 125.53007565 45.46934713 125.53222656 49.02490234 C125.53865555 51.5034391 125.54538399 53.98197509 125.55239868 56.46051025 C125.56436999 61.65549478 125.5680797 66.85041281 125.56689453 72.04541016 C125.56669148 78.68748868 125.59398017 85.32912784 125.62843895 91.97112656 C125.6507274 97.09110454 125.65473144 102.21097976 125.65367508 107.33100128 C125.65602861 109.77890752 125.66483804 112.2268167 125.68033981 114.67467499 C125.70003597 118.10649707 125.6941464 121.53739994 125.68212891 124.96923828 C125.69336792 125.97114197 125.70460693 126.97304565 125.71618652 128.00531006 C125.63582921 137.08095923 123.18170853 145.03278024 116.89941406 151.75927734 C108.90192447 158.94968083 100.87980672 160.5904659 90.39257812 160.58105469 C89.31536499 160.58777191 88.23815186 160.59448914 87.1282959 160.60140991 C83.57278814 160.6203824 80.01746927 160.62431393 76.46191406 160.62646484 C73.98337731 160.63289384 71.50484132 160.63962227 69.02630615 160.64663696 C63.83132163 160.65860827 58.63640359 160.66231798 53.44140625 160.66113281 C46.79932773 160.66092977 40.15768857 160.68821845 33.51568985 160.72267723 C28.39571187 160.74496568 23.27583665 160.74896973 18.15581512 160.74791336 C15.70790888 160.75026689 13.25999971 160.75907632 10.81214142 160.77457809 C7.38031933 160.79427425 3.94941647 160.78838468 0.51757812 160.77636719 C-0.48432556 160.7876062 -1.48622925 160.79884521 -2.51849365 160.8104248 C-11.59414282 160.73006749 -19.54596383 158.27594681 -26.27246094 151.99365234 C-33.46286443 143.99616275 -35.10364949 135.974045 -35.09423828 125.48681641 C-35.10431412 123.8709967 -35.10431412 123.8709967 -35.11459351 122.22253418 C-35.133566 118.66702642 -35.13749752 115.11170755 -35.13964844 111.55615234 C-35.14607743 109.07761559 -35.15280587 106.5990796 -35.15982056 104.12054443 C-35.17179186 98.92555991 -35.17550158 93.73064187 -35.17431641 88.53564453 C-35.17411336 81.89356601 -35.20140205 75.25192685 -35.23586082 68.60992813 C-35.25814928 63.48995015 -35.26215332 58.37007493 -35.26109695 53.25005341 C-35.26345048 50.80214717 -35.27225991 48.35423799 -35.28776169 45.9063797 C-35.30745784 42.47455761 -35.30156827 39.04365475 -35.28955078 35.61181641 C-35.30078979 34.60991272 -35.31202881 33.60800903 -35.3236084 32.57574463 C-35.24325109 23.50009546 -32.7891304 15.54827445 -26.50683594 8.82177734 C-18.50934634 1.63137385 -10.48722859 -0.00941121 0 0 Z M-2.80371094 32.29052734 C-2.80371094 63.97052734 -2.80371094 95.65052734 -2.80371094 128.29052734 C28.87628906 128.29052734 60.55628906 128.29052734 93.19628906 128.29052734 C93.19628906 96.61052734 93.19628906 64.93052734 93.19628906 32.29052734 C61.51628906 32.29052734 29.83628906 32.29052734 -2.80371094 32.29052734 Z " fill="#D59F29" transform="translate(66.8037109375,287.70947265625)"/>
<path d="M0 0 C1.22146729 -0.0127597 2.44293457 -0.02551941 3.70141602 -0.03866577 C5.66099243 -0.04200424 5.66099243 -0.04200424 7.66015625 -0.04541016 C9.02726376 -0.05184499 10.39436992 -0.05857385 11.76147461 -0.06558228 C14.61933587 -0.0775214 17.47707652 -0.08126638 20.33496094 -0.08007812 C23.98674465 -0.07987465 27.63775265 -0.10722011 31.28935242 -0.14162254 C34.11018389 -0.16391484 36.93082897 -0.16791504 39.7517395 -0.16685867 C41.74918382 -0.17034733 43.74656997 -0.19198692 45.74389648 -0.21395874 C56.96126836 -0.15745015 56.96126836 -0.15745015 61.72265625 4.29052734 C65.35099288 8.10982906 66.03266083 11.17331741 66.22265625 16.29052734 C66.03266083 21.40773728 65.35099288 24.47122562 61.72265625 28.29052734 C56.10183523 33.33897511 50.62207969 32.81270132 43.32421875 32.68115234 C42.26871826 32.67712402 41.21321777 32.6730957 40.12573242 32.66894531 C36.19952909 32.64808674 32.27357441 32.59224137 28.34765625 32.54052734 C15.16828125 32.41677734 15.16828125 32.41677734 1.72265625 32.29052734 C1.72265625 63.97052734 1.72265625 95.65052734 1.72265625 128.29052734 C33.40265625 128.29052734 65.08265625 128.29052734 97.72265625 128.29052734 C97.72265625 115.75052734 97.72265625 103.21052734 97.72265625 90.29052734 C102.89507004 82.53190665 102.89507004 82.53190665 107.72265625 80.29052734 C113.32242745 79.53671199 118.05765616 79.51749159 123.22265625 81.91552734 C127.40804475 85.89164642 129.90735338 89.18624601 130.24023438 95.03564453 C130.26650149 96.88604965 130.26978108 98.73687889 130.25390625 100.58740234 C130.25773315 101.57621399 130.26156006 102.56502563 130.26550293 103.58380127 C130.26821826 105.67160055 130.26088371 107.75943406 130.24414062 109.84716797 C130.2228174 113.01657531 130.24390852 116.18369225 130.26953125 119.35302734 C130.26688613 121.38949062 130.26175734 123.42595248 130.25390625 125.46240234 C130.26200317 126.39816101 130.2701001 127.33391968 130.27844238 128.29803467 C130.15341997 137.23034684 127.59981675 145.14869388 121.42578125 151.75927734 C113.42829165 158.94968083 105.40617391 160.5904659 94.91894531 160.58105469 C93.84173218 160.58777191 92.76451904 160.59448914 91.65466309 160.60140991 C88.09915533 160.6203824 84.54383646 160.62431393 80.98828125 160.62646484 C78.5097445 160.63289384 76.0312085 160.63962227 73.55267334 160.64663696 C68.35768882 160.65860827 63.16277078 160.66231798 57.96777344 160.66113281 C51.32569492 160.66092977 44.68405575 160.68821845 38.04205704 160.72267723 C32.92207906 160.74496568 27.80220383 160.74896973 22.68218231 160.74791336 C20.23427607 160.75026689 17.78636689 160.75907632 15.33850861 160.77457809 C11.90668652 160.79427425 8.47578365 160.78838468 5.04394531 160.77636719 C4.04204163 160.7876062 3.04013794 160.79884521 2.00787354 160.8104248 C-7.06777564 160.73006749 -15.01959664 158.27594681 -21.74609375 151.99365234 C-28.93649724 143.99616275 -30.57728231 135.974045 -30.56787109 125.48681641 C-30.57794693 123.8709967 -30.57794693 123.8709967 -30.58822632 122.22253418 C-30.60719881 118.66702642 -30.61113033 115.11170755 -30.61328125 111.55615234 C-30.61971024 109.07761559 -30.62643868 106.5990796 -30.63345337 104.12054443 C-30.64542467 98.92555991 -30.64913439 93.73064187 -30.64794922 88.53564453 C-30.64774617 81.89356601 -30.67503486 75.25192685 -30.70949364 68.60992813 C-30.73178209 63.48995015 -30.73578613 58.37007493 -30.73472977 53.25005341 C-30.73708329 50.80214717 -30.74589272 48.35423799 -30.7613945 45.9063797 C-30.78109065 42.47455761 -30.77520108 39.04365475 -30.76318359 35.61181641 C-30.77442261 34.60991272 -30.78566162 33.60800903 -30.79724121 32.57574463 C-30.7168839 23.50009546 -28.26276322 15.54827445 -21.98046875 8.82177734 C-15.60200386 3.08701074 -8.62351297 0.06144115 0 0 Z " fill="#D59F29" transform="translate(62.27734375,63.70947265625)"/>
<path d="M0 0 C0.96461151 -0.00623996 1.92922302 -0.01247993 2.92306519 -0.01890898 C6.1520845 -0.03485099 9.38035022 -0.02222963 12.609375 -0.00964355 C14.92562297 -0.01506411 17.24186749 -0.0221864 19.55810547 -0.03088379 C25.84729455 -0.04912772 32.13622133 -0.042045 38.42541504 -0.02936745 C45.00497142 -0.01924544 51.58450524 -0.02863091 58.1640625 -0.03491211 C69.92148203 -0.04345692 81.67879115 -0.03022092 93.43619156 -0.00987476 C104.09293685 0.00799589 114.74950785 0.00489166 125.40625 -0.0135498 C137.78656125 -0.03496393 150.16676138 -0.04291967 162.54708862 -0.03110075 C169.0988178 -0.02486231 175.65042695 -0.02403996 182.20214844 -0.0372467 C188.36147014 -0.04879504 194.52046245 -0.04079758 200.67974854 -0.01766968 C202.94125827 -0.01237722 205.20279569 -0.01390548 207.46429443 -0.02272034 C210.54948815 -0.03363775 213.63362385 -0.01995733 216.71875 0 C218.06379105 -0.01338433 218.06379105 -0.01338433 219.43600464 -0.02703905 C224.90699322 0.04169025 228.0113852 0.87961933 232.359375 4.50793457 C235.98771163 8.32723629 236.66937958 11.39072463 236.859375 16.50793457 C236.66937958 21.62514451 235.98771163 24.68863285 232.359375 28.50793457 C227.15084932 32.85435073 223.20426948 33.08040571 216.71875 33.01586914 C215.75413849 33.0221091 214.78952698 33.02834907 213.79568481 33.03477812 C210.5666655 33.05072013 207.33839978 33.03809877 204.109375 33.0255127 C201.79312703 33.03093325 199.47688251 33.03805554 197.16064453 33.04675293 C190.87145545 33.06499686 184.58252867 33.05791414 178.29333496 33.04523659 C171.71377858 33.03511458 165.13424476 33.04450005 158.5546875 33.05078125 C146.79726797 33.05932606 135.03995885 33.04609006 123.28255844 33.0257439 C112.62581315 33.00787325 101.96924215 33.01097748 91.3125 33.02941895 C78.93218875 33.05083307 66.55198862 33.05878881 54.17166138 33.04696989 C47.6199322 33.04073145 41.06832305 33.0399091 34.51660156 33.05311584 C28.35727986 33.06466418 22.19828755 33.05666672 16.03900146 33.03353882 C13.77749173 33.02824636 11.51595431 33.02977462 9.25445557 33.03858948 C6.16926185 33.04950689 3.08512615 33.03582647 0 33.01586914 C-1.34504105 33.02925347 -1.34504105 33.02925347 -2.71725464 33.04290819 C-8.18824322 32.97417889 -11.2926352 32.13624981 -15.640625 28.50793457 C-19.26896163 24.68863285 -19.95062958 21.62514451 -20.140625 16.50793457 C-19.95062958 11.39072463 -19.26896163 8.32723629 -15.640625 4.50793457 C-10.43209932 0.16151841 -6.48551948 -0.06453657 0 0 Z " fill="#D59E29" transform="translate(243.640625,319.4920654296875)"/>
<path d="M0 0 C0.96461151 -0.00623996 1.92922302 -0.01247993 2.92306519 -0.01890898 C6.1520845 -0.03485099 9.38035022 -0.02222963 12.609375 -0.00964355 C14.92562297 -0.01506411 17.24186749 -0.0221864 19.55810547 -0.03088379 C25.84729455 -0.04912772 32.13622133 -0.042045 38.42541504 -0.02936745 C45.00497142 -0.01924544 51.58450524 -0.02863091 58.1640625 -0.03491211 C69.92148203 -0.04345692 81.67879115 -0.03022092 93.43619156 -0.00987476 C104.09293685 0.00799589 114.74950785 0.00489166 125.40625 -0.0135498 C137.78656125 -0.03496393 150.16676138 -0.04291967 162.54708862 -0.03110075 C169.0988178 -0.02486231 175.65042695 -0.02403996 182.20214844 -0.0372467 C188.36147014 -0.04879504 194.52046245 -0.04079758 200.67974854 -0.01766968 C202.94125827 -0.01237722 205.20279569 -0.01390548 207.46429443 -0.02272034 C210.54948815 -0.03363775 213.63362385 -0.01995733 216.71875 0 C218.06379105 -0.01338433 218.06379105 -0.01338433 219.43600464 -0.02703905 C224.90699322 0.04169025 228.0113852 0.87961933 232.359375 4.50793457 C235.98771163 8.32723629 236.66937958 11.39072463 236.859375 16.50793457 C236.66937958 21.62514451 235.98771163 24.68863285 232.359375 28.50793457 C227.15084932 32.85435073 223.20426948 33.08040571 216.71875 33.01586914 C215.75413849 33.0221091 214.78952698 33.02834907 213.79568481 33.03477812 C210.5666655 33.05072013 207.33839978 33.03809877 204.109375 33.0255127 C201.79312703 33.03093325 199.47688251 33.03805554 197.16064453 33.04675293 C190.87145545 33.06499686 184.58252867 33.05791414 178.29333496 33.04523659 C171.71377858 33.03511458 165.13424476 33.04450005 158.5546875 33.05078125 C146.79726797 33.05932606 135.03995885 33.04609006 123.28255844 33.0257439 C112.62581315 33.00787325 101.96924215 33.01097748 91.3125 33.02941895 C78.93218875 33.05083307 66.55198862 33.05878881 54.17166138 33.04696989 C47.6199322 33.04073145 41.06832305 33.0399091 34.51660156 33.05311584 C28.35727986 33.06466418 22.19828755 33.05666672 16.03900146 33.03353882 C13.77749173 33.02824636 11.51595431 33.02977462 9.25445557 33.03858948 C6.16926185 33.04950689 3.08512615 33.03582647 0 33.01586914 C-1.34504105 33.02925347 -1.34504105 33.02925347 -2.71725464 33.04290819 C-8.18824322 32.97417889 -11.2926352 32.13624981 -15.640625 28.50793457 C-19.26896163 24.68863285 -19.95062958 21.62514451 -20.140625 16.50793457 C-19.95062958 11.39072463 -19.26896163 8.32723629 -15.640625 4.50793457 C-10.43209932 0.16151841 -6.48551948 -0.06453657 0 0 Z " fill="#D59E29" transform="translate(243.640625,95.4920654296875)"/>
<path d="M0 0 C1.31218506 -0.0112793 2.62437012 -0.02255859 3.97631836 -0.03417969 C5.41845926 -0.02640353 6.86059796 -0.01821092 8.30273438 -0.00964355 C9.83081732 -0.01506733 11.35889504 -0.02219143 12.88696289 -0.03088379 C17.02750517 -0.04908987 21.16764793 -0.042061 25.30819702 -0.02936745 C29.64557963 -0.01922564 33.98292852 -0.0286364 38.3203125 -0.03491211 C45.60357796 -0.04218508 52.88668107 -0.03261004 60.16992188 -0.0135498 C68.5849636 0.00821833 76.99961764 0.0011667 85.41464996 -0.02085543 C92.64541182 -0.03901944 99.87605711 -0.04156287 107.10683441 -0.03110075 C111.42293145 -0.0248713 115.73884638 -0.02401502 120.05493164 -0.0372467 C124.11312975 -0.04881923 128.17082905 -0.04075428 132.22897339 -0.01766968 C133.71645276 -0.01239002 135.20397427 -0.0138837 136.69143677 -0.02272034 C138.7252653 -0.03368693 140.75918579 -0.01748202 142.79296875 0 C143.93004272 0.0015081 145.0671167 0.0030162 146.23864746 0.00457001 C151.24800298 0.80306978 154.3417063 3.39764186 157.77148438 7.00793457 C160.16952013 12.17293466 160.15029973 16.90816337 159.39648438 22.50793457 C157.08483656 27.48686832 154.10408838 29.803177 149.39648438 32.50793457 C146.23864746 33.01129913 146.23864746 33.01129913 142.79296875 33.01586914 C140.82469116 33.03278809 140.82469116 33.03278809 138.81665039 33.05004883 C137.37450949 33.04227267 135.93237079 33.03408006 134.49023438 33.0255127 C132.96215143 33.03093648 131.43407371 33.03806057 129.90600586 33.04675293 C125.76546358 33.06495901 121.62532082 33.05793014 117.48477173 33.04523659 C113.14738912 33.03509478 108.81004023 33.04450554 104.47265625 33.05078125 C97.18939079 33.05805422 89.90628768 33.04847918 82.62304688 33.02941895 C74.20800515 33.00765081 65.79335111 33.01470244 57.37831879 33.03672457 C50.14755693 33.05488858 42.91691164 33.05743201 35.68613434 33.04696989 C31.3700373 33.04074044 27.05412237 33.03988416 22.73803711 33.05311584 C18.679839 33.06468837 14.6221397 33.05662342 10.56399536 33.03353882 C9.07651599 33.02825916 7.58899448 33.02975284 6.10153198 33.03858948 C4.06770345 33.04955607 2.03378296 33.03335116 0 33.01586914 C-1.13707397 33.01436104 -2.27414795 33.01285294 -3.44567871 33.01129913 C-8.45503423 32.21279936 -11.54873755 29.61822728 -14.97851562 26.00793457 C-17.37655138 20.84293448 -17.35733098 16.10770577 -16.60351562 10.50793457 C-13.2722258 3.3328488 -7.82264033 0.01037518 0 0 Z " fill="#D59E29" transform="translate(240.603515625,383.4920654296875)"/>
<path d="M0 0 C1.31218506 -0.0112793 2.62437012 -0.02255859 3.97631836 -0.03417969 C5.41845926 -0.02640353 6.86059796 -0.01821092 8.30273438 -0.00964355 C9.83081732 -0.01506733 11.35889504 -0.02219143 12.88696289 -0.03088379 C17.02750517 -0.04908987 21.16764793 -0.042061 25.30819702 -0.02936745 C29.64557963 -0.01922564 33.98292852 -0.0286364 38.3203125 -0.03491211 C45.60357796 -0.04218508 52.88668107 -0.03261004 60.16992188 -0.0135498 C68.5849636 0.00821833 76.99961764 0.0011667 85.41464996 -0.02085543 C92.64541182 -0.03901944 99.87605711 -0.04156287 107.10683441 -0.03110075 C111.42293145 -0.0248713 115.73884638 -0.02401502 120.05493164 -0.0372467 C124.11312975 -0.04881923 128.17082905 -0.04075428 132.22897339 -0.01766968 C133.71645276 -0.01239002 135.20397427 -0.0138837 136.69143677 -0.02272034 C138.7252653 -0.03368693 140.75918579 -0.01748202 142.79296875 0 C143.93004272 0.0015081 145.0671167 0.0030162 146.23864746 0.00457001 C151.24800298 0.80306978 154.3417063 3.39764186 157.77148438 7.00793457 C160.16952013 12.17293466 160.15029973 16.90816337 159.39648438 22.50793457 C157.08483656 27.48686832 154.10408838 29.803177 149.39648438 32.50793457 C146.23864746 33.01129913 146.23864746 33.01129913 142.79296875 33.01586914 C140.82469116 33.03278809 140.82469116 33.03278809 138.81665039 33.05004883 C137.37450949 33.04227267 135.93237079 33.03408006 134.49023438 33.0255127 C132.96215143 33.03093648 131.43407371 33.03806057 129.90600586 33.04675293 C125.76546358 33.06495901 121.62532082 33.05793014 117.48477173 33.04523659 C113.14738912 33.03509478 108.81004023 33.04450554 104.47265625 33.05078125 C97.18939079 33.05805422 89.90628768 33.04847918 82.62304688 33.02941895 C74.20800515 33.00765081 65.79335111 33.01470244 57.37831879 33.03672457 C50.14755693 33.05488858 42.91691164 33.05743201 35.68613434 33.04696989 C31.3700373 33.04074044 27.05412237 33.03988416 22.73803711 33.05311584 C18.679839 33.06468837 14.6221397 33.05662342 10.56399536 33.03353882 C9.07651599 33.02825916 7.58899448 33.02975284 6.10153198 33.03858948 C4.06770345 33.04955607 2.03378296 33.03335116 0 33.01586914 C-1.13707397 33.01436104 -2.27414795 33.01285294 -3.44567871 33.01129913 C-8.45503423 32.21279936 -11.54873755 29.61822728 -14.97851562 26.00793457 C-17.37655138 20.84293448 -17.35733098 16.10770577 -16.60351562 10.50793457 C-13.2722258 3.3328488 -7.82264033 0.01037518 0 0 Z " fill="#D59E29" transform="translate(240.603515625,159.4920654296875)"/>
<path d="M0 0 C4.183286 2.6190384 7.20336184 5.53418578 9.5625 9.875 C10.45362833 16.24020236 9.93665482 20.95862311 6.26281738 26.33321381 C3.95571811 29.37834232 1.25713262 32.02002504 -1.44921875 34.70800781 C-2.08711334 35.34940704 -2.72500793 35.99080627 -3.38223267 36.65164185 C-5.47900674 38.75717413 -7.58295879 40.85535832 -9.6875 42.953125 C-11.1522294 44.41920241 -12.61666186 45.88557654 -14.08081055 47.35223389 C-17.14405737 50.41842369 -20.21087851 53.48098074 -23.28027344 56.54101562 C-27.21468002 60.46400808 -31.14001295 64.39593784 -35.06272888 68.330616 C-38.08224762 71.35735839 -41.10650949 74.37932527 -44.13223267 77.3998642 C-45.58178537 78.84808286 -47.02985418 80.29778835 -48.47640991 81.74900055 C-50.49640201 83.77406827 -52.52268836 85.79261991 -54.55078125 87.80957031 C-55.14726471 88.41010223 -55.74374817 89.01063416 -56.35830688 89.62936401 C-61.02745656 94.25107245 -64.11885298 96.28904393 -70.875 96.375 C-71.88304688 96.40335937 -72.89109375 96.43171875 -73.9296875 96.4609375 C-81.6665153 95.299429 -86.98070204 88.35304512 -92.25 83.0625 C-93.0646875 82.26392578 -93.879375 81.46535156 -94.71875 80.64257812 C-95.49734375 79.86462891 -96.2759375 79.08667969 -97.078125 78.28515625 C-97.78356445 77.58269775 -98.48900391 76.88023926 -99.21582031 76.15649414 C-102.95840932 71.63291878 -103.45244651 67.18641495 -103.30859375 61.5 C-102.79725842 57.35753655 -101.5892128 55.31950359 -99 52 C-94.17083552 48.2332517 -90.45648066 47.40764349 -84.36328125 47.67578125 C-78.96984922 48.41570664 -75.55243781 51.03766552 -72 55 C-68.20087674 53.43215204 -65.84664013 51.05819922 -62.99121094 48.13891602 C-62.50604507 47.64601074 -62.02087921 47.15310547 -61.52101135 46.64526367 C-60.47072918 45.57736562 -59.42267339 44.50727432 -58.3766098 43.43524361 C-56.71647021 41.73557514 -55.04882208 40.04362463 -53.37872314 38.35374451 C-48.63204534 33.54913633 -43.89507287 28.73513542 -39.17333984 23.90600586 C-36.28123188 20.94920796 -33.37685186 18.00493688 -30.4645462 15.06803703 C-29.36111198 13.95040383 -28.26236059 12.82812599 -27.16857147 11.70105171 C-19.51450409 3.81740347 -11.78754253 -4.03851457 0 0 Z " fill="#D59E29" transform="translate(183,80)"/>
</svg>
