<?xml version="1.0" encoding="UTF-8"?>
<svg version="1.1" xmlns="http://www.w3.org/2000/svg" width="512" height="512">
<path d="M0 0 C1.02495575 -0.0098568 1.02495575 -0.0098568 2.07061768 -0.01991272 C4.33052688 -0.03961299 6.59036974 -0.05130087 8.8503418 -0.0612793 C10.0099495 -0.06739259 10.0099495 -0.06739259 11.19298363 -0.07362938 C15.28474026 -0.09447605 19.37646349 -0.10878388 23.46826172 -0.11816406 C27.68839826 -0.12922642 31.90800723 -0.1636278 36.12795734 -0.20333576 C39.37854474 -0.22951436 42.62900663 -0.23785696 45.87969017 -0.24144554 C47.43498485 -0.24630822 48.99027405 -0.25791323 50.54546547 -0.27648354 C52.72604511 -0.30090334 54.90526222 -0.29990575 57.0859375 -0.29296875 C58.32487259 -0.29883499 59.56380768 -0.30470123 60.84028625 -0.31074524 C65.8388804 0.40700933 69.01631086 2.59002736 72.07299805 6.5637207 C74.21089941 11.36323753 74.183137 16.05628044 73.23706055 21.17700195 C70.73911298 25.48013296 67.99769776 28.59012288 63.23706055 30.17700195 C61.68284326 30.25806881 60.12539028 30.28457093 58.5690918 30.2746582 C57.7644751 30.27216064 56.9598584 30.26966309 56.13085938 30.26708984 C55.11403076 30.25798584 54.09720215 30.24888184 53.04956055 30.23950195 C48.19237305 30.20856445 48.19237305 30.20856445 43.23706055 30.17700195 C43.23706055 40.07700195 43.23706055 49.97700195 43.23706055 60.17700195 C47.12874023 60.11899414 51.02041992 60.06098633 55.0300293 60.0012207 C58.83624233 59.96212816 62.64243225 59.93182434 66.44873047 59.90234375 C69.07611243 59.87733643 71.70342579 59.84331942 74.33056641 59.79980469 C78.1263938 59.73854679 81.92129449 59.71065253 85.7175293 59.6887207 C86.87536423 59.66291428 88.03319916 59.63710785 89.22612 59.61051941 C102.78018193 59.60594982 113.19260999 64.56484664 122.90893555 73.7590332 C130.70271197 82.01481184 134.38364491 92.02745536 134.39096069 103.16331482 C134.39534295 103.97427064 134.3997252 104.78522645 134.40424025 105.62075669 C134.41760915 108.34190006 134.42380292 111.06301106 134.42993164 113.78417969 C134.43783434 115.73409674 134.44610339 117.68401233 134.45471191 119.63392639 C134.4809205 126.04280198 134.496242 132.45168405 134.51049805 138.8605957 C134.51585888 141.06930101 134.5212364 143.27800628 134.5266304 145.4867115 C134.54826062 154.67855355 134.56699485 163.87039385 134.57825279 173.06225491 C134.59447477 186.21948051 134.62760861 199.37640999 134.68465364 212.53352398 C134.72342212 221.79232991 134.74289388 231.05105688 134.74817336 240.30994183 C134.75181834 245.83529181 134.7637485 251.36032588 134.79627609 256.88558769 C134.82647689 262.0903661 134.83262576 267.29463944 134.82089233 272.49948692 C134.82067258 274.40170429 134.82889569 276.3039459 134.84654617 278.20608139 C134.9904793 294.62137797 132.3066481 306.53556128 120.6550293 318.84887695 C113.36593774 325.73006314 103.66589361 330.31310293 93.64233398 330.29052734 C92.521474 330.29045181 91.40061401 330.29037628 90.24578857 330.29029846 C89.04150208 330.28513718 87.83721558 330.27997589 86.59643555 330.2746582 C84.74045746 330.27253578 84.74045746 330.27253578 82.84698486 330.27037048 C79.56561114 330.26572305 76.28428681 330.25674543 73.00292969 330.2456665 C69.65129044 330.23541715 66.29964906 330.23095054 62.94799805 330.22583008 C56.37764621 330.21565295 49.80741672 330.19607718 43.23706055 330.17700195 C43.23706055 340.07700195 43.23706055 349.97700195 43.23706055 360.17700195 C49.87860677 360.01952923 49.87860677 360.01952923 56.51879883 359.81665039 C62.25278496 359.74827048 65.82099718 360.13238317 70.23706055 364.17700195 C73.70662558 368.6874365 73.91209431 372.60554037 73.7956543 378.15356445 C72.88594808 383.07742887 70.11770687 386.14394861 66.23706055 389.17700195 C62.79699141 390.32369167 60.10349289 390.32511034 56.47412109 390.35400391 C55.79081726 390.3605751 55.10751343 390.3671463 54.40350342 390.37391663 C52.14359421 390.3936169 49.88375135 390.40530478 47.6237793 390.4152832 C46.46417159 390.42139649 46.46417159 390.42139649 45.28113747 390.42763329 C41.18938083 390.44847996 37.0976576 390.46278779 33.00585938 390.47216797 C28.78572283 390.48323032 24.56611387 390.51763171 20.34616375 390.55733967 C17.09557635 390.58351827 13.84511446 390.59186087 10.59443092 390.59544945 C9.03913624 390.60031213 7.48384704 390.61191714 5.92865562 390.63048744 C3.74807599 390.65490725 1.56885887 390.65390966 -0.61181641 390.64697266 C-1.8507515 390.6528389 -3.08968658 390.65870514 -4.36616516 390.66474915 C-9.36475931 389.94699458 -12.54218976 387.76397655 -15.59887695 383.7902832 C-17.73677832 378.99076638 -17.70901591 374.29772346 -16.76293945 369.17700195 C-14.26499189 364.87387095 -11.52357666 361.76388102 -6.76293945 360.17700195 C-5.20872216 360.0959351 -3.65126918 360.06943297 -2.0949707 360.0793457 C-0.88804565 360.08309204 -0.88804565 360.08309204 0.34326172 360.08691406 C1.86850464 360.10057007 1.86850464 360.10057007 3.42456055 360.11450195 C8.28174805 360.14543945 8.28174805 360.14543945 13.23706055 360.17700195 C13.23706055 350.27700195 13.23706055 340.37700195 13.23706055 330.17700195 C8.80593338 330.18810501 4.37480621 330.19920807 -0.19059753 330.21064758 C-40.84569754 330.31018943 -81.50078311 330.38480998 -122.15597839 330.4323286 C-127.48679833 330.43858197 -132.81761799 330.4450536 -138.1484375 330.45166016 C-139.20968632 330.45297171 -140.27093515 330.45428326 -141.36434302 330.45563456 C-158.537166 330.47737794 -175.7099051 330.51679361 -192.88267835 330.56276593 C-210.50979933 330.60956023 -228.13687644 330.63730364 -245.76405698 330.64744443 C-256.6368088 330.6542974 -267.50932351 330.67592456 -278.38200233 330.71658429 C-285.84265018 330.74305934 -293.30317584 330.75099216 -300.76386722 330.74450884 C-305.06528124 330.74131336 -309.36628157 330.74613478 -313.66762161 330.77302933 C-317.61300525 330.79751692 -321.55770042 330.79849037 -325.503117 330.78149643 C-326.92327211 330.77939886 -328.34347173 330.78561008 -329.76354041 330.80141786 C-344.58642317 330.95670041 -355.70011424 326.75280618 -366.43481445 316.5949707 C-374.22859088 308.33919207 -377.90952382 298.32654855 -377.9168396 287.19068909 C-377.92341298 285.97425536 -377.92341298 285.97425536 -377.93011916 284.73324722 C-377.94348805 282.01210385 -377.94968182 279.29099285 -377.95581055 276.56982422 C-377.96371324 274.61990717 -377.9719823 272.66999158 -377.98059082 270.72007751 C-378.0067994 264.31120193 -378.02212091 257.90231986 -378.03637695 251.4934082 C-378.04173779 249.2847029 -378.0471153 247.07599763 -378.05250931 244.8672924 C-378.07413952 235.67545036 -378.09287376 226.48361006 -378.1041317 217.291749 C-378.12035368 204.1345234 -378.15348751 190.97759392 -378.21053255 177.82047993 C-378.24930103 168.561674 -378.26877278 159.30294702 -378.27405226 150.04406208 C-378.27769725 144.51871209 -378.2896274 138.99367803 -378.322155 133.46841621 C-378.3523558 128.2636378 -378.35850467 123.05936446 -378.34677124 117.85451698 C-378.34655149 115.95229962 -378.3547746 114.050058 -378.37242508 112.14792252 C-378.51635821 95.73262593 -375.832527 83.81844263 -364.1809082 71.50512695 C-356.69766516 64.44065421 -346.95555603 60.05035195 -336.7109642 60.05395412 C-335.46291118 60.05196308 -334.21485816 60.04997203 -332.92898536 60.04792064 C-331.54158494 60.05077369 -330.15418471 60.05371929 -328.76678467 60.05674744 C-327.29490333 60.05631148 -325.82302206 60.05543613 -324.35114121 60.05415827 C-320.30120845 60.05191804 -316.25130203 60.05592818 -312.20137262 60.06093633 C-307.83603064 60.06524738 -303.47069019 60.06379394 -299.10534668 60.06303406 C-291.54031776 60.06250924 -283.97529745 60.06565166 -276.41027069 60.0712719 C-265.4724582 60.07939258 -254.53464987 60.0820027 -243.59683469 60.08325989 C-225.85174485 60.08544951 -208.10665961 60.09210717 -190.36157227 60.1015625 C-173.12198917 60.11073893 -155.88240731 60.11781864 -138.64282227 60.12207031 C-137.04934297 60.1224644 -137.04934297 60.1224644 -135.42367217 60.12286644 C-130.09442535 60.12417146 -124.76517852 60.12543518 -119.43593168 60.12667835 C-75.2115976 60.13704817 -30.98726912 60.15493892 13.23706055 60.17700195 C13.23706055 50.27700195 13.23706055 40.37700195 13.23706055 30.17700195 C6.59551432 30.33447468 6.59551432 30.33447468 -0.04467773 30.53735352 C-5.77866387 30.60573342 -9.34687608 30.22162074 -13.76293945 26.17700195 C-17.23250449 21.66656741 -17.43797321 17.74846354 -17.3215332 12.20043945 C-16.41182699 7.27657504 -13.64358578 4.21005529 -9.76293945 1.17700195 C-6.32287032 0.03031224 -3.6293718 0.02889357 0 0 Z M-344.76293945 96.17700195 C-348.64471363 104.72778194 -348.17967874 113.42008126 -348.13525391 122.61108398 C-348.13768475 124.37443252 -348.1414069 126.13777967 -348.14631653 127.90112305 C-348.15568774 132.66957732 -348.14633261 137.43782498 -348.1329844 142.20626307 C-348.12163298 147.20512563 -348.12578017 152.20397858 -348.12773132 157.20285034 C-348.12861297 165.5938452 -348.11755963 173.98475907 -348.09912109 182.37573242 C-348.07794169 192.06936964 -348.07444732 201.76288837 -348.08068305 211.45654404 C-348.08638183 220.79456081 -348.08072587 230.13253596 -348.06950951 239.47054672 C-348.06487175 243.4392766 -348.06398609 247.40798096 -348.06609535 251.3767128 C-348.06798199 256.05040067 -348.05984542 260.72396832 -348.04403496 265.39762878 C-348.03980085 267.11045204 -348.03893567 268.82328752 -348.04172516 270.53611374 C-348.04496036 272.87830223 -348.03583183 275.22013449 -348.02363586 277.56228638 C-348.02158299 278.87152636 -348.01953012 280.18076633 -348.01741505 281.52968025 C-347.64331335 286.89156669 -346.87993573 290.88816009 -343.32543945 294.98950195 C-337.8586963 299.65623391 -333.77334451 300.30259385 -326.74409008 300.30004978 C-324.92127491 300.30303635 -324.92127491 300.30303635 -323.0616352 300.30608326 C-321.71647955 300.30323043 -320.37132409 300.30028483 -319.02616882 300.29725647 C-317.59467243 300.29769257 -316.16317611 300.29856819 -314.73168021 300.29984564 C-310.79802222 300.30208302 -306.86439143 300.29807962 -302.9307369 300.29306757 C-298.6887947 300.28875244 -294.44685406 300.29021026 -290.20491028 300.29096985 C-282.85543644 300.29149441 -275.50597147 300.2883547 -268.15649986 300.28273201 C-257.53037425 300.27460782 -246.90425293 300.27200084 -236.27812455 300.27074402 C-219.03827852 300.26855495 -201.79843721 300.26189878 -184.55859375 300.25244141 C-167.81087263 300.24326355 -151.06315281 300.23619601 -134.31542969 300.23193359 C-133.27271363 300.2316656 -132.22999757 300.2313976 -131.15568405 300.23112148 C-123.0010594 300.22904208 -114.84643471 300.22708515 -106.69181001 300.22516692 C-66.71551548 300.21573183 -26.7392328 300.19561385 13.23706055 300.17700195 C13.23706055 230.87700195 13.23706055 161.57700195 13.23706055 90.17700195 C-48.08813202 90.11874347 -48.08813202 90.11874347 -109.41333008 90.0793457 C-117.67740893 90.07542988 -125.94148771 90.0713889 -134.20556641 90.06713867 C-135.7592443 90.06634743 -135.7592443 90.06634743 -137.34430963 90.06554019 C-154.07206073 90.05683866 -170.7997981 90.04106941 -187.52754105 90.02269636 C-204.69133234 90.00400143 -221.85511644 89.99288609 -239.0189175 89.98882496 C-249.61214416 89.98607906 -260.20533201 89.97740246 -270.79854672 89.96116902 C-278.06009466 89.95060717 -285.32162251 89.94739952 -292.58317757 89.9499992 C-296.77434787 89.95128173 -300.96545031 89.94929858 -305.15660858 89.938591 C-308.99417127 89.92885834 -312.83162046 89.92836716 -316.66918837 89.93520416 C-318.05692378 89.93604918 -319.44466628 89.93351224 -320.83238775 89.92723559 C-333.97512601 89.57553615 -333.97512601 89.57553615 -344.76293945 96.17700195 Z M43.23706055 90.17700195 C43.23706055 159.47700195 43.23706055 228.77700195 43.23706055 300.17700195 C67.39387841 303.54630818 67.39387841 303.54630818 99.04956055 295.73950195 C104.09450146 289.82971402 104.36107218 285.39397836 104.37077332 277.78933716 C104.37417165 276.68777828 104.37417165 276.68777828 104.37763864 275.56396568 C104.38395827 273.10830153 104.38315059 270.65269286 104.38232422 268.19702148 C104.38531697 266.43426441 104.38871977 264.671508 104.39250183 262.90875244 C104.40133395 258.12360365 104.40367961 253.33847275 104.40431762 248.55331659 C104.40502854 245.56301723 104.40716364 242.5727224 104.40981483 239.58242416 C104.41906544 229.14828961 104.42315005 218.71416782 104.42236328 208.2800293 C104.42176247 198.55694778 104.43231578 188.83392174 104.44810694 179.11085427 C104.46118582 170.75996741 104.46654704 162.40909869 104.46590787 154.05820167 C104.465653 149.07196533 104.46849836 144.08577829 104.47908592 139.09955215 C104.48877279 134.40951999 104.48884202 129.71958422 104.48156929 125.02954865 C104.4805242 123.31027206 104.48288183 121.59098944 104.48892975 119.87172318 C104.49666342 117.52058054 104.49199589 115.16976968 104.48429871 112.81863403 C104.48484347 111.50419878 104.48538824 110.18976353 104.48594952 108.8354969 C104.12070997 103.46672931 103.35809062 99.47049819 99.79956055 95.36450195 C85.09995019 82.81605409 58.73614458 90.17700195 43.23706055 90.17700195 Z " fill="#D59F29" transform="translate(377.762939453125,60.822998046875)"/>
<path d="M0 0 C9.2934324 6.81620953 16.2851553 15.79811584 19.11914062 27.14794922 C20.8068555 38.22402692 20.7240027 49.29360302 20.68261719 60.47485352 C20.67197345 63.88641453 20.68251952 67.29744013 20.6953125 70.70898438 C20.70253942 81.20912996 20.50118248 91.63375421 19.53125 102.09375 C19.45376526 102.93797012 19.37628052 103.78219025 19.29644775 104.6519928 C17.98002679 117.22092679 12.80463612 125.90277725 3.421875 134.35546875 C-5.30747112 140.89580452 -14.46655271 143.93902744 -25.328125 143.85546875 C-26.19993408 143.84974854 -27.07174316 143.84402832 -27.9699707 143.83813477 C-40.72285856 143.48830492 -50.23676788 138.46163365 -59.28515625 129.703125 C-64.40352928 124.19601478 -68.762186 117.32809613 -69.140625 109.66796875 C-68.83216883 105.19139968 -67.65025778 101.67715853 -64.578125 98.35546875 C-59.87717549 94.9087856 -55.42397181 93.59767379 -49.578125 94.35546875 C-43.18427228 96.65725573 -40.07088784 101.00323639 -36.515625 106.60546875 C-34.50940189 109.45301122 -33.71609877 110.13171511 -30.578125 111.35546875 C-25.58952169 112.06342235 -21.63813913 111.86654699 -17.078125 109.66796875 C-13.22244325 106.10146313 -12.38516602 102.39458919 -11.9453125 97.2734375 C-11.86152344 96.34208984 -11.77773437 95.41074219 -11.69140625 94.45117188 C-11.61277344 93.49146484 -11.53414062 92.53175781 -11.453125 91.54296875 C-11.36675781 90.56392578 -11.28039062 89.58488281 -11.19140625 88.57617188 C-10.98011321 86.16977897 -10.77591737 83.76300263 -10.578125 81.35546875 C-11.2071875 81.67644531 -11.83625 81.99742187 -12.484375 82.328125 C-22.77845452 85.74648727 -36.11919406 84.31794693 -45.8125 79.90625 C-57.50582737 73.34939835 -66.3047219 63.52658356 -70.13598633 50.45166016 C-72.8581804 37.5456644 -71.00636759 23.86530274 -63.93359375 12.77734375 C-49.07794533 -7.47731008 -21.55626061 -13.75028139 0 0 Z M-38.453125 30.48046875 C-40.14296751 34.79895517 -40.23773483 38.78217395 -39.578125 43.35546875 C-37.41513663 47.76155618 -35.18132021 50.55421845 -30.578125 52.35546875 C-25.53487116 53.03972932 -21.74735616 52.92945495 -17.140625 50.66796875 C-13.78156488 47.63662181 -11.88456869 45.61407227 -11.26171875 41.0234375 C-10.99598848 35.30595066 -11.60965348 31.75296422 -15.578125 27.35546875 C-19.41525696 23.96976408 -23.21213962 23.84255703 -28.140625 24.00390625 C-32.80338646 24.67641992 -35.43002792 27.05429206 -38.453125 30.48046875 Z " fill="#D59F29" transform="translate(131.578125,187.64453125)"/>
<path d="M0 0 C9.30925498 6.8278145 17.27635961 16.71490653 19.421875 28.35546875 C21.00813614 41.26097603 20.59037563 54.38419175 20.421875 67.35546875 C20.41327454 68.06938782 20.40467407 68.78330688 20.39581299 69.51885986 C20.337238 74.2377677 20.25787872 78.95580671 20.15740967 83.67401123 C20.12587007 85.22947024 20.0985926 86.78502268 20.07598877 88.34063721 C19.83233045 104.25001627 18.47011864 118.87458707 7.171875 131.10546875 C-2.00824476 139.67897267 -12.85991567 143.95138739 -25.328125 143.85546875 C-26.19993408 143.84974854 -27.07174316 143.84402832 -27.9699707 143.83813477 C-40.72285856 143.48830492 -50.23676788 138.46163365 -59.28515625 129.703125 C-64.40352928 124.19601478 -68.762186 117.32809613 -69.140625 109.66796875 C-68.83216883 105.19139968 -67.65025778 101.67715853 -64.578125 98.35546875 C-59.87717549 94.9087856 -55.42397181 93.59767379 -49.578125 94.35546875 C-43.18427228 96.65725573 -40.07088784 101.00323639 -36.515625 106.60546875 C-34.50940189 109.45301122 -33.71609877 110.13171511 -30.578125 111.35546875 C-25.58952169 112.06342235 -21.63813913 111.86654699 -17.078125 109.66796875 C-13.22244325 106.10146313 -12.38516602 102.39458919 -11.9453125 97.2734375 C-11.86152344 96.34208984 -11.77773437 95.41074219 -11.69140625 94.45117188 C-11.61277344 93.49146484 -11.53414062 92.53175781 -11.453125 91.54296875 C-11.36675781 90.56392578 -11.28039062 89.58488281 -11.19140625 88.57617188 C-10.98011321 86.16977897 -10.77591737 83.76300263 -10.578125 81.35546875 C-11.2071875 81.67644531 -11.83625 81.99742187 -12.484375 82.328125 C-22.77845452 85.74648727 -36.11919406 84.31794693 -45.8125 79.90625 C-57.50582737 73.34939835 -66.3047219 63.52658356 -70.13598633 50.45166016 C-72.8581804 37.5456644 -71.00636759 23.86530274 -63.93359375 12.77734375 C-49.07794533 -7.47731008 -21.55626061 -13.75028139 0 0 Z M-38.453125 30.48046875 C-40.14296751 34.79895517 -40.23773483 38.78217395 -39.578125 43.35546875 C-37.41513663 47.76155618 -35.18132021 50.55421845 -30.578125 52.35546875 C-25.53487116 53.03972932 -21.74735616 52.92945495 -17.140625 50.66796875 C-13.78156488 47.63662181 -11.88456869 45.61407227 -11.26171875 41.0234375 C-10.99598848 35.30595066 -11.60965348 31.75296422 -15.578125 27.35546875 C-19.41525696 23.96976408 -23.21213962 23.84255703 -28.140625 24.00390625 C-32.80338646 24.67641992 -35.43002792 27.05429206 -38.453125 30.48046875 Z " fill="#D59F29" transform="translate(251.578125,187.64453125)"/>
</svg>
