<?xml version="1.0" encoding="UTF-8"?>
<svg version="1.1" xmlns="http://www.w3.org/2000/svg" width="512" height="512">
<path d="M0 0 C1.53598817 1.31584655 3.05834006 2.64788511 4.5625 4 C5.47902344 4.77730469 5.47902344 4.77730469 6.4140625 5.5703125 C19.71605159 17.65750806 27.57576354 36.70031141 28.7166748 54.39053345 C28.92309134 60.4067463 28.8383737 66.41975114 28.75 72.4375 C28.73490815 74.2480356 28.7212278 76.05858353 28.70898438 77.86914062 C28.67637605 82.24640608 28.62484955 86.62306134 28.5625 91 C29.40028992 90.99000725 29.40028992 90.99000725 30.25500488 90.97981262 C36.09540012 90.9131748 41.93568643 90.86808192 47.77636719 90.83520508 C49.95284415 90.82016701 52.12929105 90.79973127 54.30566406 90.77368164 C57.44343508 90.7370791 60.5808036 90.72022339 63.71875 90.70703125 C64.68365356 90.69154739 65.64855713 90.67606354 66.6427002 90.66011047 C73.81505793 90.65834462 79.16286762 91.83659757 85.3125 95.75 C90.21958223 100.65708223 92.35625389 105.90630831 92.8125 112.75 C92.71366071 118.64741081 91.04256929 123.23991761 87.25 127.75 C81.52570875 132.54242988 77.34275392 135.13401169 69.88574219 135.11352539 C68.50476349 135.11341209 68.50476349 135.11341209 67.09588623 135.11329651 C66.11033752 135.10813522 65.12478882 135.10297394 64.109375 135.09765625 C63.09401672 135.0962413 62.07865845 135.09482635 61.03253174 135.09336853 C57.79249108 135.08777516 54.55251975 135.07522385 51.3125 135.0625 C49.11458433 135.05748414 46.91666758 135.05292139 44.71875 135.04882812 C39.33330971 135.0378079 33.94790981 135.02107633 28.5625 135 C28.57821045 136.06734375 28.5939209 137.1346875 28.61010742 138.234375 C28.66528021 142.27498529 28.6991603 146.31556398 28.72729492 150.35644531 C28.7421861 152.09022661 28.76250587 153.82397161 28.78881836 155.55761719 C29.13286364 178.84476025 25.06623744 198.92134113 9.5625 217 C8.64210938 218.08861328 8.64210938 218.08861328 7.703125 219.19921875 C-3.51951505 231.40503881 -20.73404445 239.92417258 -37.25805664 241.22143555 C-61.41184576 242.14339592 -81.38561973 237.48288303 -99.5 220.90625 C-108.17430036 212.54656157 -114.38900946 202.31335587 -118.4375 191 C-118.70047882 190.26777222 -118.96345764 189.53554443 -119.23440552 188.78112793 C-122.43802458 178.1330115 -121.76529292 167.25814132 -121.625 156.25 C-121.60992514 154.1849056 -121.59624169 152.11980055 -121.58398438 150.0546875 C-121.55120274 145.03619166 -121.49957511 140.01821549 -121.4375 135 C-122.44025719 135.00276538 -123.44301437 135.00553076 -124.47615814 135.00837994 C-148.88031297 135.0749914 -173.284456 135.12428338 -197.68868256 135.15543652 C-209.49040458 135.17090253 -221.29206653 135.19198707 -233.09375 135.22631836 C-243.38061135 135.25622873 -253.6674292 135.27557693 -263.95433283 135.28226548 C-269.40069623 135.28617494 -274.84693517 135.29535737 -280.29325867 135.31719017 C-285.42153727 135.33758109 -290.54964034 135.34382848 -295.67795563 135.33932304 C-297.55807194 135.34014707 -299.43819424 135.34609713 -301.31827545 135.35761642 C-303.89057948 135.37260138 -306.46222579 135.36893187 -309.0345459 135.36076355 C-309.77386903 135.36950207 -310.51319217 135.3782406 -311.27491903 135.38724393 C-318.55997824 135.32496206 -325.17094638 133.26655362 -330.4375 128 C-334.67281064 121.87596975 -336.19238863 116.42756487 -335.4375 109 C-334.02182013 103.34768993 -331.68952797 98.24906607 -326.765625 94.84375 C-320.86104984 91.31109819 -316.27346292 90.85353329 -309.51556396 90.87974548 C-308.71177 90.87889106 -307.90797604 90.87803663 -307.07982469 90.87715632 C-304.38359751 90.87550781 -301.6874324 90.88101263 -298.99121094 90.88647461 C-297.05961102 90.88675664 -295.12801099 90.88659843 -293.19641113 90.8860321 C-287.94887211 90.88574476 -282.70135586 90.89163137 -277.45382214 90.89860606 C-271.9711894 90.90485003 -266.48855616 90.90544423 -261.00592041 90.90663147 C-250.62208696 90.9097417 -240.23826402 90.91795095 -229.85443521 90.92798096 C-218.03352886 90.93915164 -206.21262202 90.94465496 -194.39171171 90.94967639 C-170.07363531 90.96013381 -145.75556824 90.97772731 -121.4375 91 C-121.45844727 89.74566162 -121.47939453 88.49132324 -121.50097656 87.19897461 C-121.57424618 82.47448478 -121.61961095 77.75004339 -121.65722656 73.02514648 C-121.67714639 70.99348461 -121.70429238 68.96187856 -121.73925781 66.93041992 C-122.13591644 43.26506592 -117.32369471 23.54731815 -100.4375 6 C-73.32459629 -20.09138143 -30.03791642 -23.41323999 0 0 Z M-71.828125 40.00390625 C-76.66318471 46.00078856 -78.55048672 53.26511943 -78.57794189 60.86186218 C-78.58365204 61.81349747 -78.58936218 62.76513275 -78.59524536 63.74560547 C-78.59636322 64.77790283 -78.59748108 65.8102002 -78.59863281 66.8737793 C-78.60359772 67.97035355 -78.60856262 69.0669278 -78.61367798 70.19673157 C-78.62827594 73.82256703 -78.63509813 77.44835873 -78.640625 81.07421875 C-78.64637892 83.59902446 -78.65213663 86.12383017 -78.65789795 88.64863586 C-78.66705994 93.26739447 -78.67336261 97.88614001 -78.6763947 102.5049054 C-78.6808689 109.28139392 -78.69839175 116.05768007 -78.7273953 122.8341071 C-78.75171123 128.72180223 -78.75934363 134.60943048 -78.76107025 140.4971714 C-78.76408939 142.99252231 -78.77209285 145.48787252 -78.78525543 147.98319054 C-78.80239229 151.48203036 -78.80041663 154.98038279 -78.79394531 158.47924805 C-78.8031601 159.50142426 -78.81237488 160.52360046 -78.8218689 161.57675171 C-78.75707037 172.81332034 -75.89031248 181.27888498 -68.25 189.625 C-62.23351445 195.47328272 -54.99297049 197.60728703 -46.8125 198.3125 C-38.12110523 198.16491028 -29.56142088 194.05691955 -23.4375 188 C-16.30010969 179.28888667 -15.13760612 171.51169352 -15.14697266 160.54785156 C-15.14025543 159.41357727 -15.13353821 158.27930298 -15.12661743 157.11065674 C-15.10766061 153.37060126 -15.10371425 149.6307255 -15.1015625 145.890625 C-15.09513261 143.28139167 -15.08840411 140.67215907 -15.08139038 138.06292725 C-15.06862206 132.5956506 -15.06562309 127.12842235 -15.06689453 121.66113281 C-15.06809442 115.36550548 -15.04701576 109.07022179 -15.0154072 102.77468133 C-14.98597197 96.69260789 -14.97892201 90.61069773 -14.98011398 84.52855682 C-14.97776139 81.95308785 -14.96895725 79.37761605 -14.95344925 76.80219269 C-14.93374197 73.19108492 -14.93964708 69.58084991 -14.95166016 65.96972656 C-14.93480164 64.39046387 -14.93480164 64.39046387 -14.91760254 62.77929688 C-14.99967653 53.01653206 -17.38366672 44.01540233 -24.23828125 36.7890625 C-39.87711279 24.06688693 -58.03524929 25.81433279 -71.828125 40.00390625 Z " fill="#D59F29" transform="translate(377.4375,143)"/>
</svg>
