<?xml version="1.0" encoding="UTF-8"?>
<svg version="1.1" xmlns="http://www.w3.org/2000/svg" width="512" height="512">
<path d="M0 0 C9.01643625 7.03880521 15.1108423 16.14007339 17.25 27.4375 C18.57745953 41.22372037 16.25002545 52.78115963 7.57421875 63.89453125 C-0.86877257 73.13215705 -11.15283274 78.33023854 -23.68408203 78.90625 C-36.67374665 79.10273748 -47.12290409 75.23645862 -56.75 66.4375 C-65.54895862 56.81040409 -69.41523748 46.36124665 -69.21875 33.37158203 C-68.64273854 20.84033274 -63.44465705 10.55627257 -54.20703125 2.11328125 C-38.00161747 -10.53769834 -17.12245062 -11.43845467 0 0 Z " fill="#9CA3AE" transform="translate(377.75,220.5625)"/>
<path d="M0 0 C9.01643625 7.03880521 15.1108423 16.14007339 17.25 27.4375 C18.57745953 41.22372037 16.25002545 52.78115963 7.57421875 63.89453125 C-0.86877257 73.13215705 -11.15283274 78.33023854 -23.68408203 78.90625 C-36.67374665 79.10273748 -47.12290409 75.23645862 -56.75 66.4375 C-65.54895862 56.81040409 -69.41523748 46.36124665 -69.21875 33.37158203 C-68.64273854 20.84033274 -63.44465705 10.55627257 -54.20703125 2.11328125 C-38.00161747 -10.53769834 -17.12245062 -11.43845467 0 0 Z " fill="#9CA3AE" transform="translate(185.75,220.5625)"/>
<path d="M0 0 C8.04495995 7.21112533 13.32119682 17.92789532 14.0859375 28.671875 C14.3575139 42.26498858 11.2330352 53.36185707 1.84765625 63.48046875 C-8.53485152 73.4180119 -19.692931 75.82739256 -33.58984375 75.6015625 C-44.99556676 75.13100619 -54.60295831 69.26101342 -62.40234375 61.19921875 C-71.3376048 50.69449069 -72.88317397 38.57389989 -72.15234375 25.32421875 C-70.37543916 14.31644543 -63.89585832 4.14913967 -55.15234375 -2.67578125 C-36.81823056 -13.93137598 -17.13633142 -13.34208018 0 0 Z " fill="#9CA2AE" transform="translate(381.15234375,372.67578125)"/>
<path d="M0 0 C8.04495995 7.21112533 13.32119682 17.92789532 14.0859375 28.671875 C14.3575139 42.26498858 11.2330352 53.36185707 1.84765625 63.48046875 C-8.53485152 73.4180119 -19.692931 75.82739256 -33.58984375 75.6015625 C-44.99556676 75.13100619 -54.60295831 69.26101342 -62.40234375 61.19921875 C-71.3376048 50.69449069 -72.88317397 38.57389989 -72.15234375 25.32421875 C-70.37543916 14.31644543 -63.89585832 4.14913967 -55.15234375 -2.67578125 C-36.81823056 -13.93137598 -17.13633142 -13.34208018 0 0 Z " fill="#9CA2AE" transform="translate(189.15234375,372.67578125)"/>
<path d="M0 0 C9.69242413 6.95288386 16.11995831 16.46391612 18.3125 28.3125 C19.20255131 42.86141557 16.76980464 53.93664943 7.56640625 65.5078125 C-0.19106129 73.99103064 -10.71951215 78.49452433 -22.04296875 79.52734375 C-35.05380048 80.04446743 -46.26621765 75.42536249 -55.875 66.8125 C-65.0689195 57.15140979 -68.21927164 45.22666781 -67.96484375 32.23828125 C-67.1419928 20.59088401 -61.83209893 11.03750897 -53.5 3.0625 C-38.22170141 -9.91110609 -16.69195647 -10.15663114 0 0 Z " fill="#9BA3AE" transform="translate(376.6875,70.6875)"/>
<path d="M0 0 C9.69242413 6.95288386 16.11995831 16.46391612 18.3125 28.3125 C19.20255131 42.86141557 16.76980464 53.93664943 7.56640625 65.5078125 C-0.19106129 73.99103064 -10.71951215 78.49452433 -22.04296875 79.52734375 C-35.05380048 80.04446743 -46.26621765 75.42536249 -55.875 66.8125 C-65.0689195 57.15140979 -68.21927164 45.22666781 -67.96484375 32.23828125 C-67.1419928 20.59088401 -61.83209893 11.03750897 -53.5 3.0625 C-38.22170141 -9.91110609 -16.69195647 -10.15663114 0 0 Z " fill="#9BA3AE" transform="translate(184.6875,70.6875)"/>
</svg>
